<?xml version="1.0" encoding="UTF-8"?>
<svg version="1.1" xmlns="http://www.w3.org/2000/svg" width="192" height="192">
<path d="M0 0 C63.36 0 126.72 0 192 0 C192 63.36 192 126.72 192 192 C128.64 192 65.28 192 0 192 C0 128.64 0 65.28 0 0 Z " fill="#102346" transform="translate(0,0)"/>
<path d="M0 0 C1.4783226 2.95664519 1.06032783 5.74229737 1 9 C0.39671875 9.12117188 -0.2065625 9.24234375 -0.828125 9.3671875 C-1.62734375 9.53476562 -2.4265625 9.70234375 -3.25 9.875 C-4.03890625 10.03742187 -4.8278125 10.19984375 -5.640625 10.3671875 C-7.99603118 10.99893552 -9.90809364 11.75040992 -12 13 C-12.33 13.66 -12.66 14.32 -13 15 C-12.34 15 -11.68 15 -11 15 C-11 15.66 -11 16.32 -11 17 C-9.68 17 -8.36 17 -7 17 C-7.20703125 18.82421875 -7.20703125 18.82421875 -8 21 C-10.07421875 22.45703125 -10.07421875 22.45703125 -12.6875 23.8125 C-21.75075864 28.97674994 -26.74483279 36.87883187 -30.3125 46.5625 C-32.91800786 59.38568574 -31.32986526 71.41012007 -24.390625 82.59375 C-19.76407697 88.96055921 -14.09311175 93.61858309 -7 97 C-7 97.99 -7 98.98 -7 100 C-12.48168483 100.48169463 -14.69959504 98.30775442 -18.7734375 94.94921875 C-21.68052448 92.4042426 -24.40232291 89.86410551 -27 87 C-27 86.34 -27 85.68 -27 85 C-28.32 85 -29.64 85 -31 85 C-30.24755503 91.58678751 -25.84858074 94.88341725 -21 99 C-14.05597569 103.84132862 -7.14508672 106.76409384 1 109 C1.04241723 111.33294775 1.04092937 113.66702567 1 116 C0 117 0 117 -3.13671875 117.19140625 C-13.46622127 116.6796311 -23.23166317 111.65857443 -31 105 C-31 104.67 -31 104.34 -31 104 C-28.03 103.505 -28.03 103.505 -25 103 C-26.04800781 102.94392578 -26.04800781 102.94392578 -27.1171875 102.88671875 C-28.02726562 102.82097656 -28.93734375 102.75523437 -29.875 102.6875 C-30.77992187 102.62949219 -31.68484375 102.57148438 -32.6171875 102.51171875 C-35 102 -35 102 -37 99 C-34.69 99 -32.38 99 -30 99 C-30 98.34 -30 97.68 -30 97 C-32.97 97 -35.94 97 -39 97 C-39.66 95.68 -40.32 94.36 -41 93 C-39.35 93 -37.7 93 -36 93 C-36 92.01 -36 91.02 -36 90 C-38.64 90 -41.28 90 -44 90 C-44.66 88.68 -45.32 87.36 -46 86 C-44.02 86 -42.04 86 -40 86 C-40 85.34 -40 84.68 -40 84 C-42.64 84 -45.28 84 -48 84 C-48.495 81.03 -48.495 81.03 -49 78 C-47.02 78 -45.04 78 -43 78 C-43 77.34 -43 76.68 -43 76 C-45.64 76 -48.28 76 -51 76 C-51 74.35 -51 72.7 -51 71 C-49.02 71 -47.04 71 -45 71 C-45 70.01 -45 69.02 -45 68 C-47.31 68 -49.62 68 -52 68 C-52 66.35 -52 64.7 -52 63 C-50.02 63 -48.04 63 -46 63 C-46 62.01 -46 61.02 -46 60 C-48.31 60 -50.62 60 -53 60 C-53 58.35 -53 56.7 -53 55 C-50.69 55 -48.38 55 -46 55 C-46 54.01 -46 53.02 -46 52 C-47.98 52 -49.96 52 -52 52 C-52 50.35 -52 48.7 -52 47 C-49.69 47 -47.38 47 -45 47 C-45 46.34 -45 45.68 -45 45 C-46.98 45 -48.96 45 -51 45 C-50.67 43.35 -50.34 41.7 -50 40 C-47.69 40 -45.38 40 -43 40 C-43 39.34 -43 38.68 -43 38 C-44.98 38 -46.96 38 -49 38 C-48.67 36.35 -48.34 34.7 -48 33 C-45.36 32.67 -42.72 32.34 -40 32 C-41.98 31.67 -43.96 31.34 -46 31 C-45.34 29.35 -44.68 27.7 -44 26 C-41.03 26 -38.06 26 -35 26 C-35 25.34 -35 24.68 -35 24 C-36.98 24 -38.96 24 -41 24 C-40.34 22.68 -39.68 21.36 -39 20 C-36.03 20 -33.06 20 -30 20 C-30 19.34 -30 18.68 -30 18 C-31.98 18 -33.96 18 -36 18 C-35.34 17.01 -34.68 16.02 -34 15 C-31.6171875 14.70703125 -31.6171875 14.70703125 -28.875 14.8125 C-27.96492188 14.83957031 -27.05484375 14.86664063 -26.1171875 14.89453125 C-25.41851562 14.92933594 -24.71984375 14.96414062 -24 15 C-24 14.34 -24 13.68 -24 13 C-26.31 13 -28.62 13 -31 13 C-27.84326402 9.43493001 -24.36204493 7.4080619 -20.125 5.375 C-19.52558594 5.0759375 -18.92617187 4.776875 -18.30859375 4.46875 C-12.02230648 1.38696926 -7.03610181 -0.28144407 0 0 Z " fill="#16365A" transform="translate(88,37)"/>
<path d="M0 0 C2.31 0 4.62 0 7 0 C7 2.64 7 5.28 7 8 C8.65 8 10.3 8 12 8 C12 5.36 12 2.72 12 0 C14.31 0 16.62 0 19 0 C18.95617187 0.58007812 18.91234375 1.16015625 18.8671875 1.7578125 C18.87612355 4.4654344 19.0601323 6.44773705 20 9 C22.4299845 10.96021597 24.84046209 12.26600558 27.65234375 13.61328125 C30 15 30 15 32 19 C29.69 21.31 27.38 23.62 25 26 C21 24 21 24 19 22.4375 C14.83506807 19.44395517 9.99734868 19.46939348 5 20 C-0.34740414 21.95385921 -3.45618143 24.91236287 -6 30 C-6.49328755 35.85475711 -6.85744288 41.18984281 -4.3125 46.5625 C-3.549375 47.366875 -2.78625 48.17125 -2 49 C-1.34 49.78375 -0.68 50.5675 0 51.375 C4.73082905 53.9375324 9.73602664 53.77699607 15 53 C17.70313613 51.54216379 17.70313613 51.54216379 20 50 C20.66 50 21.32 50 22 50 C22.33 49.01 22.66 48.02 23 47 C25 47 25 47 27.5 49.25 C29.60976612 51.57074273 30.71940585 53.22537933 32 56 C27.91193811 59.84616474 24.59282842 62.63589551 19 64 C19 66.97 19 69.94 19 73 C16.69 73 14.38 73 12 73 C12 70.69 12 68.38 12 66 C10.35 66 8.7 66 7 66 C7 68.31 7 70.62 7 73 C4.69 73 2.38 73 0 73 C0 70.03 0 67.06 0 64 C-0.73089844 63.90847656 -1.46179688 63.81695312 -2.21484375 63.72265625 C-7.80050304 62.27336176 -12.33636537 57.55664831 -15.43359375 52.796875 C-19.74409344 44.27061187 -20.71939214 34.23480514 -18.1640625 24.96875 C-14.97247787 18.02865993 -9.88694963 12.8624967 -3 9.5625 C-2.01 9.2840625 -2.01 9.2840625 -1 9 C-0.67 6.03 -0.34 3.06 0 0 Z " fill="#9CDCF1" transform="translate(87,59)"/>
<path d="M0 0 C63.36 0 126.72 0 192 0 C192 63.36 192 126.72 192 192 C128.64 192 65.28 192 0 192 C0 128.64 0 65.28 0 0 Z M3 6 C1.52399783 8.95200433 1.86034364 11.59219276 1.84609985 14.88850403 C1.8417176 15.60539026 1.83733535 16.3222765 1.8328203 17.06088656 C1.81941162 19.47524533 1.81324884 21.88956759 1.80712891 24.30395508 C1.79922962 26.03010728 1.79096078 27.75625782 1.78234863 29.48240662 C1.75611032 35.16143207 1.74082006 40.84046498 1.7265625 46.51953125 C1.72120373 48.47271924 1.71582622 50.42590719 1.71043015 52.37909508 C1.68879955 60.50200797 1.67006167 68.62491886 1.65880775 76.74785328 C1.64256099 88.39886723 1.60936764 100.04954806 1.55240691 111.70043641 C1.51374251 119.88732374 1.49417927 128.07412184 1.48888719 136.26109809 C1.48522917 141.15354925 1.47316008 146.04564528 1.44078445 150.93799782 C1.41076503 155.54029471 1.40436997 160.14202046 1.41616821 164.7443943 C1.41638946 166.43389003 1.40804237 168.1234118 1.39051437 169.81281662 C1.36788477 172.11941687 1.37608625 174.42393508 1.39199829 176.73054504 C1.38868814 178.02122296 1.385378 179.31190088 1.38196754 180.64169025 C2.15698725 184.85304876 3.76603136 186.29937786 7 189 C7.33 189.33 7.66 189.66 8 190 C10.25418617 190.10367031 12.51168669 190.13524029 14.76824951 190.14044189 C15.48428132 190.14341302 16.20031313 190.14638414 16.93804288 190.1494453 C19.35551674 190.1581692 21.7729413 190.15964365 24.19042969 190.16113281 C25.91643379 190.16575846 27.64243686 190.17078277 29.36843872 190.17617798 C34.07104419 190.18933025 38.77363537 190.19575267 43.47625637 190.20018864 C46.4122455 190.2031154 49.34823068 190.20721949 52.28421783 190.21169281 C61.46418578 190.22537647 70.64414475 190.23503832 79.82412219 190.2388947 C90.43183343 190.24337484 101.03941577 190.26091705 111.64708781 190.2898953 C119.83820383 190.31149722 128.02928355 190.32159822 136.22042775 190.32293582 C141.11614633 190.32398511 146.01174389 190.32991896 150.90743256 190.34775543 C155.51371982 190.36420992 160.11979478 190.3664044 164.72610092 190.35761642 C166.41719251 190.35684458 168.10829539 190.36120808 169.79935837 190.37107468 C172.10776489 190.38375345 174.41541491 190.37793998 176.72381592 190.36749268 C178.01579266 190.36895924 179.30776939 190.3704258 180.63889694 190.3719368 C184.29219836 189.96766558 186.13800924 189.27751411 189 187 C191.54707089 183.57128562 191.25653199 180.07023377 191.26742554 175.90895081 C191.27422221 174.83718351 191.27422221 174.83718351 191.28115618 173.74376434 C191.2938173 171.34937417 191.29217874 168.95521096 191.29052734 166.56079102 C191.29651147 164.84419461 191.30331675 163.1276009 191.31088257 161.41101074 C191.32856005 156.74782309 191.33323864 152.08470882 191.33451414 147.42149091 C191.33641276 143.52972955 191.34376973 139.63798531 191.35085833 135.74623054 C191.36714598 126.56575621 191.37202688 117.38532111 191.37060547 108.20483398 C191.36940343 98.73102999 191.39051685 89.25745359 191.4220928 79.7837072 C191.44823114 71.65196998 191.45897382 63.52030721 191.45769465 55.38852829 C191.45718436 50.5308294 191.46290447 45.67333282 191.48405075 40.81567574 C191.50339245 36.24786222 191.50358562 31.68044485 191.48901749 27.11261749 C191.48692333 25.43603628 191.49166636 23.75943053 191.5037384 22.08289146 C191.51915168 19.79413766 191.50991034 17.5067566 191.49447632 15.21803284 C191.49556585 13.9373269 191.49665539 12.65662096 191.49777794 11.33710575 C190.90701153 7.37660481 189.83823735 5.78039775 187 3 C183.52056462 0.50932076 180.14407685 0.74116995 175.9536438 0.72584534 C175.24392138 0.72060866 174.53419897 0.71537198 173.80296981 0.70997661 C171.42474187 0.69497449 169.04672904 0.69427143 166.66845703 0.69360352 C164.96333452 0.68598221 163.25821545 0.67755476 161.55310059 0.66838074 C156.92084429 0.64642703 152.28865401 0.63763576 147.65635157 0.63255429 C144.76237739 0.628912 141.86842055 0.62267262 138.97445297 0.6155529 C128.87863148 0.59105615 118.78286141 0.57800585 108.68701172 0.57446289 C99.27566493 0.57082662 89.86464407 0.54092527 80.45339692 0.49905831 C72.37344783 0.46437357 64.29360687 0.44891477 56.21358383 0.44821686 C51.3876562 0.44742347 46.56206059 0.43865657 41.73620987 0.41021919 C37.19705877 0.38406937 32.65851569 0.38181593 28.11932373 0.39787483 C26.45444286 0.39969175 24.78952727 0.39297667 23.12472153 0.37705612 C20.84920213 0.35662382 18.57581591 0.36712742 16.30032349 0.38526917 C15.02791368 0.38325784 13.75550388 0.38124651 12.44453621 0.37917423 C7.88823805 1.20037834 6.25958972 2.76498694 3 6 Z " fill="#C7C8CF" transform="translate(0,0)"/>
<path d="M0 0 C1.4783226 2.95664519 1.06032783 5.74229737 1 9 C-0.258125 9.20625 -1.51625 9.4125 -2.8125 9.625 C-14.85482263 12.36189151 -25.26728906 20.41707915 -32.375 30.375 C-39.59052909 42.02613763 -41.82758719 55.74030362 -39.43359375 69.1796875 C-38.34862538 73.28098154 -36.99661342 77.13652331 -35.25 81 C-34 84 -34 84 -35 87 C-35.226875 86.21625 -35.45375 85.4325 -35.6875 84.625 C-37.33437038 81.33125925 -38.64358353 81.20486745 -42 80 C-42.33 79.01 -42.66 78.02 -43 77 C-46.96 76.505 -46.96 76.505 -51 76 C-51 74.35 -51 72.7 -51 71 C-49.02 71 -47.04 71 -45 71 C-45 70.01 -45 69.02 -45 68 C-47.31 68 -49.62 68 -52 68 C-52 66.35 -52 64.7 -52 63 C-50.02 63 -48.04 63 -46 63 C-46 62.01 -46 61.02 -46 60 C-48.31 60 -50.62 60 -53 60 C-53 58.35 -53 56.7 -53 55 C-50.69 55 -48.38 55 -46 55 C-46 54.01 -46 53.02 -46 52 C-47.98 52 -49.96 52 -52 52 C-52 50.35 -52 48.7 -52 47 C-49.69 47 -47.38 47 -45 47 C-45 46.34 -45 45.68 -45 45 C-46.98 45 -48.96 45 -51 45 C-50.67 43.35 -50.34 41.7 -50 40 C-47.69 40 -45.38 40 -43 40 C-43 39.34 -43 38.68 -43 38 C-44.98 38 -46.96 38 -49 38 C-48.67 36.35 -48.34 34.7 -48 33 C-45.36 32.67 -42.72 32.34 -40 32 C-41.98 31.67 -43.96 31.34 -46 31 C-45.34 29.35 -44.68 27.7 -44 26 C-41.03 26 -38.06 26 -35 26 C-35 25.34 -35 24.68 -35 24 C-36.98 24 -38.96 24 -41 24 C-40.34 22.68 -39.68 21.36 -39 20 C-36.03 20 -33.06 20 -30 20 C-30 19.34 -30 18.68 -30 18 C-31.98 18 -33.96 18 -36 18 C-35.34 17.01 -34.68 16.02 -34 15 C-31.6171875 14.70703125 -31.6171875 14.70703125 -28.875 14.8125 C-27.96492188 14.83957031 -27.05484375 14.86664063 -26.1171875 14.89453125 C-25.41851562 14.92933594 -24.71984375 14.96414062 -24 15 C-24 14.34 -24 13.68 -24 13 C-26.31 13 -28.62 13 -31 13 C-27.84326402 9.43493001 -24.36204493 7.4080619 -20.125 5.375 C-19.52558594 5.0759375 -18.92617187 4.776875 -18.30859375 4.46875 C-12.02230648 1.38696926 -7.03610181 -0.28144407 0 0 Z " fill="#89D0E7" transform="translate(88,37)"/>
<path d="M0 0 C2 2 2 2 2.2321291 4.98078632 C2.22379142 6.27033317 2.21545374 7.55988001 2.2068634 8.88850403 C2.20504442 9.60539026 2.20322544 10.3222765 2.20135134 11.06088656 C2.19290332 13.47538643 2.17018529 15.88954807 2.14770508 18.30395508 C2.13896002 20.03010114 2.13116492 21.75625224 2.12425232 23.48240662 C2.10773277 27.20602868 2.0853104 30.92955329 2.0586338 34.65311623 C2.01736337 40.53968529 1.99439918 46.42623531 1.97502136 52.31291199 C1.91736795 69.05452934 1.83993544 85.7959785 1.73266602 102.53735352 C1.67361106 111.77857871 1.63242866 121.01970736 1.6108982 130.26109809 C1.59624316 136.1140369 1.55940648 141.96628755 1.50637591 147.81899798 C1.47865113 151.46082661 1.47185893 155.10246954 1.47104836 158.7443943 C1.46647632 160.43391525 1.45329467 162.12343805 1.43088913 163.81281662 C1.40153592 166.11934849 1.40303984 168.42389102 1.41218567 170.73054504 C1.40497907 172.02122296 1.39777246 173.31190088 1.39034748 174.64169025 C2.18124655 178.99840819 3.41680706 180.43725444 7 183 C10.41863237 183.7498832 10.41863237 183.7498832 14.24494934 183.63923645 C14.96384313 183.64759213 15.68273692 183.6559478 16.42341536 183.66455668 C18.82679989 183.68646428 21.22865304 183.6728878 23.63208008 183.65942383 C25.35694538 183.66787759 27.08180114 183.67852195 28.80664062 183.69119263 C33.48608031 183.71935888 38.16506191 183.71686385 42.84456086 183.70889878 C47.73601701 183.70577569 52.62732676 183.7308023 57.51872253 183.75285339 C66.77985765 183.7903214 76.04084592 183.80244302 85.30204934 183.8054778 C95.84617095 183.81016563 106.39014518 183.84308014 116.93420184 183.87837565 C138.62278445 183.95034381 160.31130722 183.98683231 182 184 C182 184.33 182 184.66 182 185 C121.61 185.33 61.22 185.66 -1 186 C-1.04030303 139.64703253 -1.04030303 139.64703253 -1.04882812 120.28710938 C-1.05477173 106.89672464 -1.0617751 93.50634618 -1.07543945 80.1159668 C-1.08538449 70.36570622 -1.091853 60.61545071 -1.09408849 50.8651852 C-1.09539591 45.69910902 -1.09848369 40.53304733 -1.10573006 35.36697578 C-1.11248744 30.51043666 -1.11461754 25.6539181 -1.11310768 20.79737473 C-1.11338414 19.00946758 -1.11539092 17.22155979 -1.11920547 15.43365669 C-1.12413833 13.00360201 -1.12299981 10.57362623 -1.12025452 8.14356995 C-1.12316736 7.42665735 -1.1260802 6.70974476 -1.12908131 5.97110754 C-1.11412121 1.11412121 -1.11412121 1.11412121 0 0 Z " fill="#A9ABB4" transform="translate(1,6)"/>
<path d="M0 0 C2.31 0.66 4.62 1.32 7 2 C6.79269759 14.0235396 0.50448019 24.35837702 -7.67578125 32.81640625 C-15.84267278 40.48916653 -24.92437394 46.51535385 -36 49 C-39.0625 48.6875 -39.0625 48.6875 -41 48 C-41 45.36 -41 42.72 -41 40 C-39.865625 39.7525 -38.73125 39.505 -37.5625 39.25 C-24.01134901 35.80843784 -13.17656963 27.58161542 -5.75 15.6875 C-3.13681646 10.76444887 -1.63797656 5.30599854 0 0 Z " fill="#3B95D4" transform="translate(145,105)"/>
<path d="M0 0 C10.34718328 -1.17581628 20.79817195 5.19870699 29 11 C38.23728919 18.59178019 46.35580978 30.00463862 47.75 42.0625 C47.8325 43.361875 47.915 44.66125 48 46 C45.69 46.99 43.38 47.98 41 49 C40.79246094 48.18917969 40.58492187 47.37835938 40.37109375 46.54296875 C36.3407005 32.05716204 28.97286729 20.91281558 15.84375 13.35546875 C10.76816974 10.93620178 5.42079222 9.44441172 0 8 C0 5.36 0 2.72 0 0 Z " fill="#B3E6F1" transform="translate(104,38)"/>
<path d="M0 0 C0.33 0.99 0.66 1.98 1 3 C2.65438613 3.69658363 4.32254318 4.36096883 6 5 C7.84394564 6.54891434 9.16048072 8.20985941 10.625 10.125 C19.96951504 21.43678137 29.86617753 28.12012716 44 32 C44.04241723 34.33294775 44.04092937 36.66702567 44 39 C43 40 43 40 39.86328125 40.19140625 C29.53377873 39.6796311 19.76833683 34.65857443 12 28 C12 27.67 12 27.34 12 27 C13.98 26.67 15.96 26.34 18 26 C17.30132812 25.96261719 16.60265625 25.92523438 15.8828125 25.88671875 C14.97273438 25.82097656 14.06265625 25.75523437 13.125 25.6875 C11.76761719 25.60048828 11.76761719 25.60048828 10.3828125 25.51171875 C8 25 8 25 6 22 C8.31 22 10.62 22 13 22 C13 21.34 13 20.68 13 20 C10.03 20 7.06 20 4 20 C3.34 18.68 2.68 17.36 2 16 C3.65 16 5.3 16 7 16 C7 15.01 7 14.02 7 13 C4.36 13 1.72 13 -1 13 C-1.66 11.68 -2.32 10.36 -3 9 C-1.02 9 0.96 9 3 9 C3 8.34 3 7.68 3 7 C0.36 7 -2.28 7 -5 7 C-5.33 5.02 -5.66 3.04 -6 1 C-4.02 0.67 -2.04 0.34 0 0 Z " fill="#67B6DD" transform="translate(45,114)"/>
<path d="M0 0 C-0.20703125 1.82421875 -0.20703125 1.82421875 -1 4 C-3.07421875 5.45703125 -3.07421875 5.45703125 -5.6875 6.8125 C-14.75075864 11.97674994 -19.74483279 19.87883187 -23.3125 29.5625 C-25.91800786 42.38568574 -24.32986526 54.41012007 -17.390625 65.59375 C-12.76407697 71.96055921 -7.09311175 76.61858309 0 80 C0 80.99 0 81.98 0 83 C-5.42089669 83.44620341 -7.6244826 81.46403192 -11.66015625 78.11328125 C-21.76932683 68.98296191 -28.10923829 58.38820751 -29.2890625 44.62890625 C-29.78120217 31.97573636 -26.19507653 20.7639538 -18 11 C-7.2513181 0 -7.2513181 0 0 0 Z " fill="#65AFD8" transform="translate(81,54)"/>
<path d="M0 0 C1.4783226 2.95664519 1.06032783 5.74229737 1 9 C-0.258125 9.20625 -1.51625 9.4125 -2.8125 9.625 C-14.22802807 12.2194382 -25.07613002 19.84259824 -31.625 29.5625 C-32.07875 30.366875 -32.5325 31.17125 -33 32 C-33.66 31.67 -34.32 31.34 -35 31 C-35 30.34 -35 29.68 -35 29 C-34.34 29 -33.68 29 -33 29 C-33.33 28.01 -33.66 27.02 -34 26 C-33.22265625 23.95703125 -33.22265625 23.95703125 -32.0625 21.8125 C-31.49208984 20.73935547 -31.49208984 20.73935547 -30.91015625 19.64453125 C-30.60980469 19.10183594 -30.30945312 18.55914062 -30 18 C-31.98 18 -33.96 18 -36 18 C-35.01 16.515 -35.01 16.515 -34 15 C-31.6171875 14.70703125 -31.6171875 14.70703125 -28.875 14.8125 C-27.96492188 14.83957031 -27.05484375 14.86664063 -26.1171875 14.89453125 C-25.41851562 14.92933594 -24.71984375 14.96414062 -24 15 C-24 14.34 -24 13.68 -24 13 C-26.31 13 -28.62 13 -31 13 C-27.84326402 9.43493001 -24.36204493 7.4080619 -20.125 5.375 C-19.52558594 5.0759375 -18.92617187 4.776875 -18.30859375 4.46875 C-12.02230648 1.38696926 -7.03610181 -0.28144407 0 0 Z " fill="#BAE7EF" transform="translate(88,37)"/>
<path d="M0 0 C1.875 1.375 1.875 1.375 3 3 C3 3.66 3 4.32 3 5 C9.27 5 15.54 5 22 5 C22.66 3.68 23.32 2.36 24 1 C25 0 25 0 27.8125 -0.3125 C31 0 31 0 33.4375 1.5625 C35 4 35 4 35 7.5625 C34 11 34 11 32.25 13 C29.33305134 14.29642163 27.98207327 14.07048784 25 13 C24.5464917 12.49750732 24.0929834 11.99501465 23.62573242 11.47729492 C21.53325223 9.57586863 20.34613806 9.58208517 17.55078125 9.48828125 C16.70322266 9.45283203 15.85566406 9.41738281 14.98242188 9.38085938 C13.66081055 9.34702148 13.66081055 9.34702148 12.3125 9.3125 C11.41982422 9.27833984 10.52714844 9.24417969 9.60742188 9.20898438 C7.40507329 9.12654352 5.20312062 9.05738449 3 9 C2.59201172 9.95712891 2.59201172 9.95712891 2.17578125 10.93359375 C1 13 1 13 -1.8125 14.0625 C-5 14 -5 14 -7.9375 12 C-10 9 -10 9 -10 5.3125 C-8.33800715 -0.19285132 -5.28382858 -0.55039881 0 0 Z " fill="#74C6E3" transform="translate(127,89)"/>
<path d="M0 0 C63.36 0 126.72 0 192 0 C192 3.3 192 6.6 192 10 C191.443125 9.236875 190.88625 8.47375 190.3125 7.6875 C187.10076629 3.95494461 184.6453024 2.19025392 179.68689156 1.61688995 C178.41745642 1.61316124 177.14802128 1.60943253 175.84011841 1.60559082 C175.13024713 1.59949972 174.42037586 1.59340861 173.68899333 1.58713293 C171.31609873 1.5705162 168.94374151 1.57527668 166.57080078 1.58007812 C164.86715132 1.57273697 163.16350683 1.56415061 161.45986938 1.55441284 C156.83583195 1.53219216 152.21197269 1.52926646 147.58788919 1.53116035 C143.72608193 1.53128004 139.86431243 1.52271672 136.00251567 1.51438284 C126.89048613 1.49514651 117.77854819 1.49226568 108.66650391 1.49902344 C99.27047759 1.50566368 89.8748439 1.4828011 80.47889721 1.44570971 C72.40824246 1.41500759 64.33771397 1.40365326 56.26700199 1.40754652 C51.44833927 1.4096136 46.62998203 1.40414118 41.81137466 1.37965393 C37.2787508 1.35738105 32.74676489 1.35926897 28.21413803 1.37958145 C26.55290989 1.38299063 24.89163877 1.3779063 23.23046875 1.36359787 C11.63418976 1.10404686 11.63418976 1.10404686 2 7 C1.34 7 0.68 7 0 7 C0 4.69 0 2.38 0 0 Z " fill="#E2E3E7" transform="translate(0,0)"/>
<path d="M0 0 C2.31 0.66 4.62 1.32 7 2 C6.79276471 14.01964702 0.50882362 24.3424622 -7.66015625 32.8046875 C-17.44994568 41.98976539 -17.44994568 41.98976539 -23 43 C-23 42.34 -23 41.68 -23 41 C-21.56123223 39.94270093 -20.0710102 38.95516019 -18.5625 38 C-9.71220895 31.9577333 -0.82010726 23.04259897 1.625 12.23828125 C1.74875 11.49964844 1.8725 10.76101562 2 10 C1.01 10 0.02 10 -1 10 C-1.309375 11.2065625 -1.309375 11.2065625 -1.625 12.4375 C-3.43912648 17.13773678 -6.07242535 20.92493379 -9 25 C-10.0828125 26.546875 -10.0828125 26.546875 -11.1875 28.125 C-14.8466526 32.38401369 -19.98714683 35.57117176 -25 38 C-25.99 37.67 -26.98 37.34 -28 37 C-27.28714844 36.50371094 -26.57429688 36.00742188 -25.83984375 35.49609375 C-12.08776126 25.74192488 -4.77650263 16.35249723 0 0 Z " fill="#61ADDB" transform="translate(145,105)"/>
<path d="M0 0 C0.99 0 1.98 0 3 0 C3 6.6 3 13.2 3 20 C4.32 20.66 5.64 21.32 7 22 C8 23 8 23 8.3125 26.3125 C8 30 8 30 6.4375 32.5 C4 34 4 34 0.375 33.875 C-3 33 -3 33 -5 31 C-5.44370229 25.40935115 -5.44370229 25.40935115 -5 23 C-4.50733643 22.555354 -4.01467285 22.11070801 -3.50708008 21.65258789 C-1.58344066 19.54322206 -1.59567199 18.40660628 -1.5234375 15.5859375 C-1.4925 14.74289063 -1.4615625 13.89984375 -1.4296875 13.03125 C-1.41164063 12.1546875 -1.39359375 11.278125 -1.375 10.375 C-1.32420393 8.6326947 -1.26971847 6.89049169 -1.2109375 5.1484375 C-1.18459229 3.99093994 -1.18459229 3.99093994 -1.15771484 2.81005859 C-1 1 -1 1 0 0 Z " fill="#3976B0" transform="translate(95,137)"/>
<path d="M0 0 C2 1.375 2 1.375 4 3 C4 3.66 4 4.32 4 5 C4.99 5.33 5.98 5.66 7 6 C7 6.66 7 7.32 7 8 C8.32 8 9.64 8 11 8 C18.85193622 22.41230068 18.85193622 22.41230068 19 31 C15.535 32.485 15.535 32.485 12 34 C11.74605469 33.13117188 11.49210938 32.26234375 11.23046875 31.3671875 C10.88628906 30.21476562 10.54210937 29.06234375 10.1875 27.875 C9.68283203 26.16957031 9.68283203 26.16957031 9.16796875 24.4296875 C8.03357606 21.09859458 6.61795154 18.11872553 5 15 C4.375 12.875 4.375 12.875 4 11 C3.814375 10.2575 3.62875 9.515 3.4375 8.75 C3.2209375 7.88375 3.2209375 7.88375 3 7 C2.34 7 1.68 7 1 7 C-1 4 -1 4 -0.625 1.8125 C-0.41875 1.214375 -0.2125 0.61625 0 0 Z " fill="#92D4EB" transform="translate(133,53)"/>
<path d="M0 0 C2.375 1.0625 2.375 1.0625 4 3 C4.74396135 8.95169082 4.74396135 8.95169082 2.625 11.9375 C1 13 1 13 -1 13 C-1 19.6 -1 26.2 -1 33 C-2.32 32.67 -3.64 32.34 -5 32 C-5 25.73 -5 19.46 -5 13 C-5.99 12.67 -6.98 12.34 -8 12 C-9.52491998 8.95016004 -9.23562548 6.3576631 -9 3 C-6.83831363 -0.7229043 -4.01644453 -0.49180953 0 0 Z " fill="#94C5D5" transform="translate(99,21)"/>
<path d="M0 0 C2.64 0 5.28 0 8 0 C7.34 2.97 6.68 5.94 6 9 C5.34 9 4.68 9 4 9 C4.226875 9.53625 4.45375 10.0725 4.6875 10.625 C5.1528547 14.16169569 3.86734965 16.03799711 2 19 C1.319375 19.28875 0.63875 19.5775 -0.0625 19.875 C-2.16101341 20.81847784 -2.16101341 20.81847784 -2.69921875 22.890625 C-3.19754822 24.9122169 -3.60435422 26.95583012 -4 29 C-4.33 29 -4.66 29 -5 29 C-5.14285714 21.57142857 -5.14285714 21.57142857 -4 18 C-5.98 18 -7.96 18 -10 18 C-9.67 16.35 -9.34 14.7 -9 13 C-6.36 12.67 -3.72 12.34 -1 12 C-3.97 11.505 -3.97 11.505 -7 11 C-6.34 9.35 -5.68 7.7 -5 6 C-2.03 6 0.94 6 4 6 C4 5.34 4 4.68 4 4 C2.02 4 0.04 4 -2 4 C-1.34 2.68 -0.68 1.36 0 0 Z " fill="#94D3E4" transform="translate(49,57)"/>
<path d="M0 0 C-0.20703125 1.82421875 -0.20703125 1.82421875 -1 4 C-3.07421875 5.45703125 -3.07421875 5.45703125 -5.6875 6.8125 C-15.48188355 12.39334533 -20.85964257 21.31354702 -23.8125 32.0625 C-24.22040383 33.7053834 -24.6207172 35.35027398 -25 37 C-25.66 36.67 -26.32 36.34 -27 36 C-28.1527534 26.44861466 -24.02887825 18.16227696 -18.22265625 10.72265625 C-13.38313766 5.70755422 -7.24011408 0 0 0 Z " fill="#96CDDC" transform="translate(81,54)"/>
<path d="M0 0 C0.33 0 0.66 0 1 0 C1.07516846 0.55349121 1.15033691 1.10698242 1.2277832 1.67724609 C2.86298163 17.38636234 2.86298163 17.38636234 8.15234375 32.0625 C9 34 9 34 8 37 C7.773125 36.21625 7.54625 35.4325 7.3125 34.625 C5.66562962 31.33125925 4.35641647 31.20486745 1 30 C0.67 29.01 0.34 28.02 0 27 C-2.64 26.67 -5.28 26.34 -8 26 C-8 24.35 -8 22.7 -8 21 C-6.02 21 -4.04 21 -2 21 C-1.97494385 20.39937744 -1.9498877 19.79875488 -1.92407227 19.17993164 C-1.8084472 16.47388563 -1.68557064 13.76821717 -1.5625 11.0625 C-1.52318359 10.11697266 -1.48386719 9.17144531 -1.44335938 8.19726562 C-1.40146484 7.29814453 -1.35957031 6.39902344 -1.31640625 5.47265625 C-1.26141968 4.22367554 -1.26141968 4.22367554 -1.20532227 2.94946289 C-1 1 -1 1 0 0 Z " fill="#70BCDE" transform="translate(45,87)"/>
<path d="M0 0 C7.55811504 1.00774867 13.48723671 6.125333 18.38671875 11.73046875 C23.76394987 18.93655481 27.56707921 24.7377063 27 34 C26.01 34 25.02 34 24 34 C23.79246094 33.24976563 23.58492187 32.49953125 23.37109375 31.7265625 C19.61833577 19.25924102 14.07891841 11.81779595 3 5 C2.01 4.34 1.02 3.68 0 3 C0 2.01 0 1.02 0 0 Z " fill="#92CBDE" transform="translate(112,54)"/>
<path d="M0 0 C0.99 0 1.98 0 3 0 C3.53116287 9.206823 -1.52876313 16.65910751 -7.375 23.4375 C-11.07834969 27.31571274 -14.971497 30.95414225 -20 33 C-21.32 33 -22.64 33 -24 33 C-23.9375 31.25 -23.9375 31.25 -23 29 C-21.31888599 27.97814639 -19.63020186 26.96522482 -17.89453125 26.0390625 C-9.34877864 21.35211365 -4.10711887 12.90327238 -1.0625 3.8125 C-0.711875 2.554375 -0.36125 1.29625 0 0 Z " fill="#61A8D4" transform="translate(136,104)"/>
<path d="M0 0 C1.4783226 2.95664519 1.06032783 5.74229737 1 9 C0.67 9 0.34 9 0 9 C0 7.35 0 5.7 0 4 C-6.97771671 5.70923896 -13.38293797 7.29796041 -19.4375 11.3125 C-22.56266355 13.37355827 -24.36428907 14.42296786 -28.125 13.875 C-29.548125 13.441875 -29.548125 13.441875 -31 13 C-27.84326402 9.43493001 -24.36204493 7.4080619 -20.125 5.375 C-19.52558594 5.0759375 -18.92617187 4.776875 -18.30859375 4.46875 C-12.02230648 1.38696926 -7.03610181 -0.28144407 0 0 Z " fill="#7DBED7" transform="translate(88,37)"/>
<path d="M0 0 C5.10861931 2.83739875 10.57790182 4.73110274 16.06640625 6.703125 C16.06640625 7.693125 16.06640625 8.683125 16.06640625 9.703125 C4.47603953 10.18912513 -6.22003559 5.17188913 -14.93359375 -2.296875 C-14.93359375 -2.626875 -14.93359375 -2.956875 -14.93359375 -3.296875 C-8.61676154 -5.26211169 -5.51862189 -3.28507673 0 0 Z " fill="#377FC3" transform="translate(71.93359375,144.296875)"/>
<path d="M0 0 C2.34765625 0.8203125 2.34765625 0.8203125 5.0625 2.125 C5.96097656 2.54007812 6.85945313 2.95515625 7.78515625 3.3828125 C10 5 10 5 10.80859375 7.6796875 C10.87175781 8.44539063 10.93492188 9.21109375 11 10 C11.391875 9.51015625 11.78375 9.0203125 12.1875 8.515625 C14.57166612 6.52196885 15.9321685 6.65869549 19 6.75 C19.86625 6.76546875 20.7325 6.7809375 21.625 6.796875 C24 7 24 7 27 8 C27 10.64 27 13.28 27 16 C24.69 16 22.38 16 20 16 C20 13.69 20 11.38 20 9 C18.35 9 16.7 9 15 9 C15 11.31 15 13.62 15 16 C12.69 16 10.38 16 8 16 C8 13.03 8 10.06 8 7 C7.278125 6.938125 6.55625 6.87625 5.8125 6.8125 C2.15342375 5.75543353 0.50788398 3.79449929 -2 1 C-1.34 0.67 -0.68 0.34 0 0 Z " fill="#5DB0D7" transform="translate(79,116)"/>
<path d="M0 0 C3.29383949 1.13225732 6.08468747 2.62823684 9 4.5 C14.11391267 7.75952191 19.15148705 9.39452586 25 11 C25 12.98 25 14.96 25 17 C3.28145348 10.32024085 3.28145348 10.32024085 -1 4 C-0.75 1.75 -0.75 1.75 0 0 Z " fill="#57ABE1" transform="translate(64,135)"/>
<path d="M0 0 C3.1875 0.3125 3.1875 0.3125 5.625 1.875 C7.1875 4.3125 7.1875 4.3125 7.1875 7.875 C6.1875 11.3125 6.1875 11.3125 4.375 13.25 C2.1875 14.3125 2.1875 14.3125 -1.8125 14.3125 C-1.8125 13.6525 -1.8125 12.9925 -1.8125 12.3125 C-0.1625 11.9825 1.4875 11.6525 3.1875 11.3125 C3.1875 9.0025 3.1875 6.6925 3.1875 4.3125 C-1.22772109 5.58224972 -1.22772109 5.58224972 -4.8125 8.3125 C-7.375 8.5 -7.375 8.5 -9.8125 8.3125 C-10.1425 7.9825 -10.4725 7.6525 -10.8125 7.3125 C-12.99542774 7.07768307 -15.18453174 6.89886677 -17.375 6.75 C-18.57253906 6.66621094 -19.77007812 6.58242187 -21.00390625 6.49609375 C-21.93074219 6.43550781 -22.85757813 6.37492187 -23.8125 6.3125 C-23.8125 5.9825 -23.8125 5.6525 -23.8125 5.3125 C-17.8725 5.3125 -11.9325 5.3125 -5.8125 5.3125 C-5.1525 3.9925 -4.4925 2.6725 -3.8125 1.3125 C-2.8125 0.3125 -2.8125 0.3125 0 0 Z " fill="#72ADCE" transform="translate(154.8125,88.6875)"/>
<path d="M0 0 C0.78375 0.04125 1.5675 0.0825 2.375 0.125 C2.705 0.785 3.035 1.445 3.375 2.125 C2.385 2.455 1.395 2.785 0.375 3.125 C0.045 4.775 -0.285 6.425 -0.625 8.125 C0.695 8.125 2.015 8.125 3.375 8.125 C3.705 5.485 4.035 2.845 4.375 0.125 C5.695 0.785 7.015 1.445 8.375 2.125 C8.85445205 8.35787671 8.85445205 8.35787671 6.8125 11.625 C4.375 13.125 4.375 13.125 0.75 13 C-2.625 12.125 -2.625 12.125 -4.625 10.125 C-4.890625 8.25 -4.890625 8.25 -4.875 6.125 C-4.88015625 5.42375 -4.8853125 4.7225 -4.890625 4 C-4.43038182 0.75122461 -3.13681296 0.14937205 0 0 Z " fill="#407CBC" transform="translate(94.625,157.875)"/>
<path d="M0 0 C6.08867157 3.69379408 10.61251614 7.3750207 15 13 C13.68 14.32 12.36 15.64 11 17 C10.360625 16.13375 9.72125 15.2675 9.0625 14.375 C5.71378681 10.31008804 1.44821587 7.7328908 -3 5 C-2.01 3.35 -1.02 1.7 0 0 Z " fill="#1B3A5C" transform="translate(120,51)"/>
<path d="M0 0 C0.66 0.66 1.32 1.32 2 2 C1.625 4.125 1.625 4.125 1 6 C-1.97 5.505 -1.97 5.505 -5 5 C-5 6.32 -5 7.64 -5 9 C-2.525 9.99 -2.525 9.99 0 11 C-0.33 11.99 -0.66 12.98 -1 14 C-4.26738025 13.7095662 -6.3867751 13.51431765 -8.9375 11.375 C-10.48100034 7.92482276 -9.93333407 5.60000284 -9 2 C-5.54754176 -0.30163882 -4.05261287 -0.34490322 0 0 Z " fill="#85CDE3" transform="translate(127,89)"/>
<path d="M0 0 C4.17660573 -0.26518132 7.04340734 -0.31886422 11 1 C11.33 1.99 11.66 2.98 12 4 C11.31164062 4.65355469 11.31164062 4.65355469 10.609375 5.3203125 C6.83645414 8.9822651 3.7376848 12.51019692 1 17 C0.34 16.67 -0.32 16.34 -1 16 C-1 15.34 -1 14.68 -1 14 C-0.34 14 0.32 14 1 14 C0.67 13.01 0.34 12.02 0 11 C0.77734375 8.95703125 0.77734375 8.95703125 1.9375 6.8125 C2.31777344 6.09707031 2.69804688 5.38164063 3.08984375 4.64453125 C3.54037109 3.83048828 3.54037109 3.83048828 4 3 C2.02 3 0.04 3 -2 3 C-1.34 2.01 -0.68 1.02 0 0 Z " fill="#B2E3EC" transform="translate(54,52)"/>
<path d="M0 0 C2 0 2 0 4.5 2.25 C6.56954228 4.5264965 7.85749293 6.19566446 9 9 C7.35 10.32 5.7 11.64 4 13 C3.34 12.67 2.68 12.34 2 12 C2 9 2 9 4 7 C2.68 6.34 1.36 5.68 0 5 C-0.763125 5.680625 -1.52625 6.36125 -2.3125 7.0625 C-6.84600665 10.17587204 -11.85946973 8.84151029 -17 8 C-17 7.67 -17 7.34 -17 7 C-16.40832031 6.96261719 -15.81664063 6.92523438 -15.20703125 6.88671875 C-10.33428431 6.48131892 -7.09944801 5.85719103 -3 3 C-2.34 3 -1.68 3 -1 3 C-0.67 2.01 -0.34 1.02 0 0 Z " fill="#7ECCE2" transform="translate(110,106)"/>
<path d="M0 0 C0.763125 0.061875 1.52625 0.12375 2.3125 0.1875 C2.6425 2.4975 2.9725 4.8075 3.3125 7.1875 C1.0025 7.8475 -1.3075 8.5075 -3.6875 9.1875 C-4.09073486 8.7030542 -4.49396973 8.2186084 -4.90942383 7.71948242 C-7.11597445 5.81832835 -8.25782554 5.7723884 -11.13671875 5.67578125 C-11.98427734 5.64033203 -12.83183594 5.60488281 -13.70507812 5.56835938 C-15.02668945 5.53452148 -15.02668945 5.53452148 -16.375 5.5 C-17.26767578 5.46583984 -18.16035156 5.43167969 -19.08007812 5.39648438 C-21.28242671 5.31404352 -23.48437938 5.24488449 -25.6875 5.1875 C-25.6875 4.8575 -25.6875 4.5275 -25.6875 4.1875 C-24.80227661 4.16562622 -24.80227661 4.16562622 -23.89916992 4.14331055 C-21.22378771 4.06881156 -18.54965108 3.97216005 -15.875 3.875 C-14.4818457 3.84116211 -14.4818457 3.84116211 -13.06054688 3.80664062 C-12.16787109 3.77119141 -11.27519531 3.73574219 -10.35546875 3.69921875 C-9.53328857 3.67303467 -8.7111084 3.64685059 -7.86401367 3.61987305 C-4.28634027 2.90915408 -3.73884455 0.26084962 0 0 Z " fill="#5DA2C6" transform="translate(155.6875,92.8125)"/>
<path d="M0 0 C4.49254001 0.53190364 7.10584524 2.23537847 10.6875 4.9375 C11.64011719 5.64777344 12.59273437 6.35804687 13.57421875 7.08984375 C16 9 16 9 18 11 C17.625 13.125 17.625 13.125 17 15 C16.52691406 14.63648437 16.05382812 14.27296875 15.56640625 13.8984375 C11.0720401 10.48166791 6.50167459 7.34646601 1.6875 4.39453125 C1.130625 3.93433594 0.57375 3.47414062 0 3 C0 2.01 0 1.02 0 0 Z " fill="#A5D8E3" transform="translate(112,54)"/>
<path d="M0 0 C0 0.33 0 0.66 0 1 C-0.65226562 1.08636719 -1.30453125 1.17273438 -1.9765625 1.26171875 C-8.15596332 2.25516225 -11.70109526 3.38654126 -16 8 C-19.38452134 13.01842819 -19.66252049 18.11156444 -20 24 C-22.38370909 21.61629091 -22.29588602 21.0063401 -22.3125 17.75 C-22.15202566 11.85020814 -20.13929338 8.05444686 -16.1875 3.75 C-11.1160207 -1.00919609 -6.71675551 -1.3433511 0 0 Z " fill="#B7E6EF" transform="translate(99,77)"/>
<path d="M0 0 C-0.33 0.66 -0.66 1.32 -1 2 C-3.06640625 2.6328125 -3.06640625 2.6328125 -5.5625 3.125 C-6.80193359 3.37636719 -6.80193359 3.37636719 -8.06640625 3.6328125 C-8.70449219 3.75398437 -9.34257813 3.87515625 -10 4 C-10 5.32 -10 6.64 -10 8 C-9.25234375 7.69964844 -8.5046875 7.39929688 -7.734375 7.08984375 C-6.25710937 6.51943359 -6.25710937 6.51943359 -4.75 5.9375 C-3.77546875 5.55464844 -2.8009375 5.17179688 -1.796875 4.77734375 C1.04007395 3.98886213 2.29409552 3.97562188 5 5 C-0.33083975 7.59893548 -5.04051225 9.62753202 -11 10 C-12 9 -12 9 -12.09765625 7.15234375 C-12.06510417 5.1015625 -12.03255208 3.05078125 -12 1 C-7.93631321 0.22596442 -4.13574827 -0.0984702 0 0 Z " fill="#57A2D8" transform="translate(116,144)"/>
<path d="M0 0 C0 2.31 0 4.62 0 7 C-12.87 7 -25.74 7 -39 7 C-39 6.67 -39 6.34 -39 6 C-38.13310547 5.99589111 -37.26621094 5.99178223 -36.37304688 5.98754883 C-33.12212634 5.96039991 -29.87246393 5.91113792 -26.62207031 5.84741211 C-25.22179593 5.82437492 -23.82135179 5.8098702 -22.42089844 5.80444336 C-14.45534195 5.76751318 -6.07242777 0 0 0 Z " fill="#D1D2D7" transform="translate(192,185)"/>
<path d="M0 0 C0 0.66 0 1.32 0 2 C-2.73534588 2.89196061 -4.18548704 3.30173162 -7 3 C-10.62907839 1.03534653 -13.8680933 -1.31550854 -17 -4 C-17 -4.33 -17 -4.66 -17 -5 C-10.04689488 -7.11616243 -5.54437983 -4.40649906 0 0 Z " fill="#2A6FB0" transform="translate(74,146)"/>
<path d="M0 0 C3.84419647 0.38606247 5.35947723 2.16628972 7.75 5.0625 C8.36359375 5.79597656 8.9771875 6.52945313 9.609375 7.28515625 C10.06828125 7.85105469 10.5271875 8.41695312 11 9 C9.68 10.32 8.36 11.64 7 13 C0.33416211 6.96071606 0.33416211 6.96071606 -1 3.125 C-1 1 -1 1 0 0 Z " fill="#102D51" transform="translate(57,121)"/>
<path d="M0 0 C0.33 0 0.66 0 1 0 C3.46254726 6.61809577 3.18935472 13.00439516 3 20 C2.67 19.34 2.34 18.68 2 18 C1.01 18 0.02 18 -1 18 C-1.02698422 15.56242587 -1.04683099 13.12515085 -1.0625 10.6875 C-1.07087891 9.99720703 -1.07925781 9.30691406 -1.08789062 8.59570312 C-1.10307906 5.4516975 -1.00193327 3.00579981 0 0 Z " fill="#66A9C9" transform="translate(53,84)"/>
<path d="M0 0 C0.33 0.99 0.66 1.98 1 3 C-0.65 3.66 -2.3 4.32 -4 5 C-3.42655063 7.86724686 -3.1385485 8.8614515 -1 11 C-2.65 11.66 -4.3 12.32 -6 13 C-8.46324069 9.30513897 -8.38991688 7.36706908 -8 3 C-5.91685466 -0.39881608 -3.78885018 -0.30720407 0 0 Z " fill="#ABDAE7" transform="translate(98,21)"/>
<path d="M0 0 C1.98 0 3.96 0 6 0 C6 0.66 6 1.32 6 2 C4.35666496 3.03789581 2.68756133 4.03567924 1 5 C0.34 5.66 -0.32 6.32 -1 7 C-3.5625 7.1875 -3.5625 7.1875 -6 7 C-6.33 6.67 -6.66 6.34 -7 6 C-9.18292774 5.76518307 -11.37203174 5.58636677 -13.5625 5.4375 C-14.76003906 5.35371094 -15.95757812 5.26992187 -17.19140625 5.18359375 C-18.11824219 5.12300781 -19.04507813 5.06242187 -20 5 C-20 4.67 -20 4.34 -20 4 C-14.06 4 -8.12 4 -2 4 C-1.34 2.68 -0.68 1.36 0 0 Z " fill="#75C0E0" transform="translate(151,90)"/>
<path d="M0 0 C0.99 0 1.98 0 3 0 C3.82200425 6.24723226 0.92551394 10.71317837 -2 16 C-2.66 15.34 -3.32 14.68 -4 14 C-3.56344692 9.19791609 -1.57131574 4.53606243 0 0 Z " fill="#6BB2D9" transform="translate(136,104)"/>
<path d="M0 0 C0.99 0 1.98 0 3 0 C3 5.94 3 11.88 3 18 C2.01 17.67 1.02 17.34 0 17 C0 11.39 0 5.78 0 0 Z " fill="#4E9BD5" transform="translate(95,137)"/>
<path d="M0 0 C1.4783226 2.95664519 1.06032783 5.74229737 1 9 C0.67 9 0.34 9 0 9 C0 7.35 0 5.7 0 4 C-2.97 4.66 -5.94 5.32 -9 6 C-9.66 4.68 -10.32 3.36 -11 2 C-7.36576791 -0.32590854 -4.22911669 -0.16265833 0 0 Z " fill="#8DC1D5" transform="translate(88,37)"/>
<path d="M0 0 C0.33 0 0.66 0 1 0 C2.22517308 5.66642551 2.09228867 11.23708518 2 17 C1.34 17 0.68 17 0 17 C0 18.98 0 20.96 0 23 C-1.70177018 20.05090254 -2.22630025 18.09711839 -2.01171875 14.70703125 C-1.96466797 13.91232422 -1.91761719 13.11761719 -1.86914062 12.29882812 C-1.80919922 11.47833984 -1.74925781 10.65785156 -1.6875 9.8125 C-1.61499023 8.56436523 -1.61499023 8.56436523 -1.54101562 7.29101562 C-1.14532747 1.14532747 -1.14532747 1.14532747 0 0 Z " fill="#7ECAE7" transform="translate(45,87)"/>
<path d="M0 0 C1.32 0.66 2.64 1.32 4 2 C1.24800963 4.95584151 -1.37530293 7.18765147 -5 9 C-6.32 9 -7.64 9 -9 9 C-8.9375 7.25 -8.9375 7.25 -8 5 C-5.76267561 3.42232899 -3.44184302 2.26452585 -1 1 C-0.67 0.67 -0.34 0.34 0 0 Z " fill="#559BCD" transform="translate(121,128)"/>
<path d="M0 0 C0.99 0 1.98 0 3 0 C2.25 6.625 2.25 6.625 0 10 C-2.2818314 11.48319041 -4.56738224 12.78369112 -7 14 C-4.66666667 9.33333333 -2.33333333 4.66666667 0 0 Z " fill="#3F9EDA" transform="translate(144,115)"/>
<path d="M0 0 C0.66 0 1.32 0 2 0 C2 0.66 2 1.32 2 2 C2.66 2 3.32 2 4 2 C4.50559908 3.43554025 5.0042749 4.8735202 5.5 6.3125 C5.7784375 7.11300781 6.056875 7.91351563 6.34375 8.73828125 C7 11 7 11 7 14 C5.109375 13.76953125 5.109375 13.76953125 3 13 C1.953125 11.07421875 1.953125 11.07421875 1.25 8.6875 C1.00765625 7.90761719 0.7653125 7.12773438 0.515625 6.32421875 C0 4 0 4 0 0 Z " fill="#71BADC" transform="translate(53,102)"/>
<path d="M0 0 C0.66 0.99 1.32 1.98 2 3 C-0.625 7.875 -0.625 7.875 -4 9 C-4.80212628 10.87387216 -4.80212628 10.87387216 -5.1875 13.0625 C-5.34605469 13.79597656 -5.50460938 14.52945313 -5.66796875 15.28515625 C-5.83232422 16.13400391 -5.83232422 16.13400391 -6 17 C-6.33 17 -6.66 17 -7 17 C-7.34459841 11.48642545 -6.73731898 6.89052388 -4 2 C-1.8125 0.5 -1.8125 0.5 0 0 Z " fill="#9DDAE9" transform="translate(51,69)"/>
<path d="M0 0 C-0.36834013 2.65204896 -0.6867691 3.73840056 -2.77734375 5.484375 C-3.49019531 5.90203125 -4.20304687 6.3196875 -4.9375 6.75 C-6.00291016 7.39195313 -6.00291016 7.39195313 -7.08984375 8.046875 C-9 9 -9 9 -11 9 C-11.33 8.01 -11.66 7.02 -12 6 C-5.07692308 0 -5.07692308 0 0 0 Z " fill="#A9D8E3" transform="translate(81,54)"/>
<path d="M0 0 C0.66 0.99 1.32 1.98 2 3 C0.42040347 4.29623379 -1.16383413 5.58681327 -2.75 6.875 C-3.63171875 7.59429687 -4.5134375 8.31359375 -5.421875 9.0546875 C-7.60702448 10.70348211 -9.43631859 12.06285595 -12 13 C-12.99 12.67 -13.98 12.34 -15 12 C-14.25234375 11.46890625 -13.5046875 10.9378125 -12.734375 10.390625 C-11.74953125 9.68421875 -10.7646875 8.9778125 -9.75 8.25 C-8.77546875 7.55390625 -7.8009375 6.8578125 -6.796875 6.140625 C-4.30766704 4.23547701 -2.15028061 2.27315379 0 0 Z " fill="#5BA7D9" transform="translate(132,130)"/>
<path d="M0 0 C1.74627478 2.61941217 2.38722388 4.03824877 3 7 C0.36 7 -2.28 7 -5 7 C-5.33 5.02 -5.66 3.04 -6 1 C-4.02 0.67 -2.04 0.34 0 0 Z " fill="#3677AF" transform="translate(45,114)"/>
<path d="M0 0 C0.78375 0.04125 1.5675 0.0825 2.375 0.125 C2.705 0.785 3.035 1.445 3.375 2.125 C2.385 2.455 1.395 2.785 0.375 3.125 C0.045 4.775 -0.285 6.425 -0.625 8.125 C0.695 8.785 2.015 9.445 3.375 10.125 C0.735 9.795 -1.905 9.465 -4.625 9.125 C-4.75 5.75 -4.75 5.75 -4.625 2.125 C-2.625 0.125 -2.625 0.125 0 0 Z " fill="#4B92CE" transform="translate(94.625,157.875)"/>
<path d="M0 0 C-2.82308089 1.01630912 -4.34201394 0.94299768 -7.375 0.4375 C-14.4351792 -0.41459059 -18.62409904 2.91431527 -24 7 C-22.50521886 3.19510255 -20.30557786 1.33809165 -17 -1 C-11.03577817 -2.98807394 -5.74527607 -2.29811043 0 0 Z " fill="#275A78" transform="translate(106,80)"/>
<path d="M0 0 C7.32136984 3.73539278 13.17521768 8.57542255 17 16 C14 16 14 16 12.39453125 14.5390625 C11.87246094 13.90742187 11.35039062 13.27578125 10.8125 12.625 C10.28269531 11.99851562 9.75289062 11.37203125 9.20703125 10.7265625 C8 9 8 9 8 7 C5.525 6.01 5.525 6.01 3 5 C3 4.34 3 3.68 3 3 C2.01 2.67 1.02 2.34 0 2 C0 1.34 0 0.68 0 0 Z " fill="#B0D8E3" transform="translate(126,45)"/>
<path d="M0 0 C2.31 0.66 4.62 1.32 7 2 C6.91214662 3.41777182 6.80395353 4.83429039 6.6875 6.25 C6.62949219 7.03890625 6.57148438 7.8278125 6.51171875 8.640625 C6 11 6 11 3 15 C3.33 11.37 3.66 7.74 4 4 C2.68 3.67 1.36 3.34 0 3 C0 2.01 0 1.02 0 0 Z " fill="#72B9E1" transform="translate(145,105)"/>
<path d="M0 0 C0.38613383 2.62571005 0.38493778 4.3843879 -1.04296875 6.66796875 C-2.375 8.3125 -2.375 8.3125 -5 11 C-5.66 11 -6.32 11 -7 11 C-7 10.34 -7 9.68 -7 9 C-7.66 9 -8.32 9 -9 9 C-7.90904165 5.72712496 -7.08205507 4.95539407 -4.5 2.8125 C-3.8709375 2.28269531 -3.241875 1.75289062 -2.59375 1.20703125 C-1 0 -1 0 0 0 Z " fill="#0D2745" transform="translate(66,58)"/>
<path d="M0 0 C0.33 0.66 0.66 1.32 1 2 C0.34 2 -0.32 2 -1 2 C-1.33 3.98 -1.66 5.96 -2 8 C-2.33 7.34 -2.66 6.68 -3 6 C-4.98 6 -6.96 6 -9 6 C-8.67 4.35 -8.34 2.7 -8 1 C-5.36 0.67 -2.72 0.34 0 0 Z " fill="#5492B4" transform="translate(48,69)"/>
<path d="M0 0 C2.3828125 0.99609375 2.3828125 0.99609375 5.125 2.4375 C6.03507812 2.91058594 6.94515625 3.38367188 7.8828125 3.87109375 C8.58148438 4.24363281 9.28015625 4.61617188 10 5 C10 6.98 10 8.96 10 11 C9.01 11.495 9.01 11.495 8 12 C8 10.35 8 8.7 8 7 C7.278125 6.938125 6.55625 6.87625 5.8125 6.8125 C2.15342375 5.75543353 0.50788398 3.79449929 -2 1 C-1.34 0.67 -0.68 0.34 0 0 Z " fill="#7ACBE8" transform="translate(79,116)"/>
<path d="M0 0 C0.33 0 0.66 0 1 0 C1.33 2.31 1.66 4.62 2 7 C-0.64 7 -3.28 7 -6 7 C-6 5.35 -6 3.7 -6 2 C-4.02 2 -2.04 2 0 2 C0 1.34 0 0.68 0 0 Z " fill="#3B82B7" transform="translate(43,106)"/>
<path d="M0 0 C2.31 0 4.62 0 7 0 C7 2.64 7 5.28 7 8 C6.67 7.01 6.34 6.02 6 5 C4.02 5 2.04 5 0 5 C0 3.35 0 1.7 0 0 Z " fill="#468CBA" transform="translate(36,84)"/>
<path d="M0 0 C2.31 0 4.62 0 7 0 C6.67 2.31 6.34 4.62 6 7 C5.67 6.34 5.34 5.68 5 5 C3.02 5 1.04 5 -1 5 C-0.67 3.35 -0.34 1.7 0 0 Z " fill="#4B91BB" transform="translate(38,77)"/>
<path d="M0 0 C0.33 0 0.66 0 1 0 C1 2.31 1 4.62 1 7 C-1.31 7 -3.62 7 -6 7 C-6 5.35 -6 3.7 -6 2 C-4.02 2 -2.04 2 0 2 C0 1.34 0 0.68 0 0 Z " fill="#438CBD" transform="translate(42,98)"/>
<path d="M0 0 C0.66 0.66 1.32 1.32 2 2 C1.67 2.66 1.34 3.32 1 4 C1.185625 4.556875 1.37125 5.11375 1.5625 5.6875 C2.20841929 9.10164484 1.06215059 11.75106879 0 15 C-0.66 14.67 -1.32 14.34 -2 14 C-2.3690205 4.58997722 -2.3690205 4.58997722 0 0 Z " fill="#82C3DD" transform="translate(56,76)"/>
<path d="M0 0 C0.94875 0.350625 1.8975 0.70125 2.875 1.0625 C0.8125 3.125 0.8125 3.125 -2.125 5.0625 C-5.9375 4.8125 -5.9375 4.8125 -9.125 4.0625 C-4.025 -1.2075 -4.025 -1.2075 0 0 Z " fill="#6FABC6" transform="translate(66.125,45.9375)"/>
<path d="M0 0 C0.99 0 1.98 0 3 0 C3 2.64 3 5.28 3 8 C1.02 8 -0.96 8 -3 8 C-3 5.69 -3 3.38 -3 1 C-2.01 1.495 -2.01 1.495 -1 2 C-0.67 1.34 -0.34 0.68 0 0 Z " fill="#6ABDE2" transform="translate(103,124)"/>
<path d="M0 0 C-0.56589844 0.29132813 -1.13179687 0.58265625 -1.71484375 0.8828125 C-6.63215516 3.48270754 -6.63215516 3.48270754 -9 8.3125 C-9 9.199375 -9 10.08625 -9 11 C-9.33 11 -9.66 11 -10 11 C-10.33 8.03 -10.66 5.06 -11 2 C-9.68 2 -8.36 2 -7 2 C-6.67 1.34 -6.34 0.68 -6 0 C-3.50907189 -1.24546405 -2.58919267 -0.7767578 0 0 Z " fill="#7FD1EE" transform="translate(114,119)"/>
<path d="M0 0 C0.99 1.485 0.99 1.485 2 3 C2.66 2.67 3.32 2.34 4 2 C3.91231752 3.5843317 3.80412671 5.16753567 3.6875 6.75 C3.62949219 7.63171875 3.57148437 8.5134375 3.51171875 9.421875 C3 12 3 12 0 16 C0 10.72 0 5.44 0 0 Z " fill="#8FD6EA" transform="translate(68,87)"/>
<path d="M0 0 C2.31 0 4.62 0 7 0 C7 1.65 7 3.3 7 5 C4.69 5 2.38 5 0 5 C0 3.35 0 1.7 0 0 Z " fill="#4991C3" transform="translate(35,92)"/>
<path d="M0 0 C0.99 0.33 1.98 0.66 3 1 C1.70700306 3.88437779 0.34058637 5.87219421 -2 8 C-2.33 7.01 -2.66 6.02 -3 5 C-4.65 6.65 -6.3 8.3 -8 10 C-8.66 9.67 -9.32 9.34 -10 9 C-8.71142987 7.68445979 -7.41904109 6.37265903 -6.125 5.0625 C-5.04605469 3.96615234 -5.04605469 3.96615234 -3.9453125 2.84765625 C-2 1 -2 1 0 0 Z " fill="#17304E" transform="translate(68,54)"/>
<path d="M0 0 C0.66 0.99 1.32 1.98 2 3 C-0.31 5.97 -2.62 8.94 -5 12 C-5.66 11.67 -6.32 11.34 -7 11 C-7 10.34 -7 9.68 -7 9 C-6.34 9 -5.68 9 -5 9 C-5.33 8.01 -5.66 7.02 -6 6 C-4.02 4.02 -2.04 2.04 0 0 Z " fill="#A0D5DF" transform="translate(60,57)"/>
<path d="M0 0 C2.31 0 4.62 0 7 0 C5.75 2.9375 5.75 2.9375 4 6 C1.8125 6.875 1.8125 6.875 0 7 C0 4.69 0 2.38 0 0 Z " fill="#EBEAEC" transform="translate(0,0)"/>
<path d="M0 0 C1.68762851 1.6454378 3.3540349 3.31288577 5 5 C5 5.33 5 5.66 5 6 C2.36 6 -0.28 6 -3 6 C-3.66 4.68 -4.32 3.36 -5 2 C-3.35 2 -1.7 2 0 2 C0 1.34 0 0.68 0 0 Z " fill="#2E6AA1" transform="translate(52,128)"/>
<path d="M0 0 C3 3.75 3 3.75 3 6 C0.69 6 -1.62 6 -4 6 C-4.66 4.68 -5.32 3.36 -6 2 C-4.02 2 -2.04 2 0 2 C0 1.34 0 0.68 0 0 Z " fill="#3479B3" transform="translate(48,121)"/>
<path d="M0 0 C2.3125 0.5625 2.3125 0.5625 5 2 C6.875 5.4375 6.875 5.4375 8 9 C7.67 9.99 7.34 10.98 7 12 C6.01287122 10.75627811 5.03560095 9.50472782 4.0625 8.25 C3.51722656 7.55390625 2.97195312 6.8578125 2.41015625 6.140625 C1.02574346 4.03907872 0.43713013 2.45678201 0 0 Z " fill="#5BAFDA" transform="translate(50,120)"/>
<path d="M0 0 C0.33 0 0.66 0 1 0 C1 1.65 1 3.3 1 5 C3.31 5 5.62 5 8 5 C8 5.99 8 6.98 8 8 C6.02 8 4.04 8 2 8 C2 9.65 2 11.3 2 13 C1.67 13 1.34 13 1 13 C0.67 8.71 0.34 4.42 0 0 Z " fill="#153D6A" transform="translate(34,92)"/>
<path d="M0 0 C0.66 0.33 1.32 0.66 2 1 C1.31292969 1.61488281 0.62585938 2.22976562 -0.08203125 2.86328125 C-1.43361328 4.07564453 -1.43361328 4.07564453 -2.8125 5.3125 C-3.70582031 6.11300781 -4.59914063 6.91351563 -5.51953125 7.73828125 C-7.39926786 9.45224581 -9.22592747 11.17877604 -11 13 C-11.66 12.67 -12.32 12.34 -13 12 C-9.04174791 7.17514834 -5.40839975 3.16589254 0 0 Z " fill="#224361" transform="translate(76,59)"/>
<path d="M0 0 C0.99 0 1.98 0 3 0 C3 3.63 3 7.26 3 11 C2.01 11 1.02 11 0 11 C0 7.37 0 3.74 0 0 Z " fill="#B3E3EE" transform="translate(95,43)"/>
<path d="M0 0 C0 1.65 0 3.3 0 5 C-1.65 5 -3.3 5 -5 5 C-5 4.34 -5 3.68 -5 3 C-6.32 2.67 -7.64 2.34 -9 2 C-5.86501708 0.14223235 -3.62528568 -0.20140476 0 0 Z " fill="#C4EEF4" transform="translate(88,41)"/>
<path d="M0 0 C1.65 0 3.3 0 5 0 C5 1.65 5 3.3 5 5 C3.35 5.33 1.7 5.66 0 6 C-1.125 2.25 -1.125 2.25 0 0 Z " fill="#0E2958" transform="translate(94,161)"/>
<path d="M0 0 C0.99 0.33 1.98 0.66 3 1 C3 1.66 3 2.32 3 3 C3.66 3.33 4.32 3.66 5 4 C6.04808041 5.97522846 7.0520411 7.97481509 8 10 C7.01 10 6.02 10 5 10 C3.61328125 8.57421875 3.61328125 8.57421875 2.3125 6.6875 C1.87550781 6.07261719 1.43851562 5.45773438 0.98828125 4.82421875 C0 3 0 3 0 0 Z " fill="#85D0EA" transform="translate(70,106)"/>
<path d="M0 0 C1.65 0 3.3 0 5 0 C5 1.65 5 3.3 5 5 C1.25 6.125 1.25 6.125 -1 5 C-0.67 3.35 -0.34 1.7 0 0 Z " fill="#183C63" transform="translate(153,93)"/>
<path d="M0 0 C2.64 0 5.28 0 8 0 C6.68 1.65 5.36 3.3 4 5 C1.03 4.505 1.03 4.505 -2 4 C-1.34 2.68 -0.68 1.36 0 0 Z " fill="#5AA0C0" transform="translate(49,57)"/>
<path d="M0 0 C1.65 0.33 3.3 0.66 5 1 C5 2.32 5 3.64 5 5 C3.125 5.625 3.125 5.625 1 6 C0.34 5.34 -0.32 4.68 -1 4 C-0.625 1.875 -0.625 1.875 0 0 Z " fill="#1B3654" transform="translate(94,25)"/>
<path d="M0 0 C1.65 0.33 3.3 0.66 5 1 C4.67 2.65 4.34 4.3 4 6 C2.35 5.67 0.7 5.34 -1 5 C-0.67 3.35 -0.34 1.7 0 0 Z " fill="#1C4E74" transform="translate(122,93)"/>
<path d="M0 0 C0 2.31 0 4.62 0 7 C-2.64 7 -5.28 7 -8 7 C-7.360625 6.7525 -6.72125 6.505 -6.0625 6.25 C-3.80939427 5.19851273 -3.80939427 5.19851273 -3.375 2.9375 C-3.189375 1.9784375 -3.189375 1.9784375 -3 1 C-1 0 -1 0 0 0 Z " fill="#E1E2E3" transform="translate(192,185)"/>
<path d="M0 0 C3.65316671 1.24976756 4.78065836 1.67098753 7 5 C5.35 5.66 3.7 6.32 2 7 C0.4375 5.75 0.4375 5.75 -1 4 C-0.6875 1.8125 -0.6875 1.8125 0 0 Z " fill="#62B1E0" transform="translate(64,135)"/>
<path d="M0 0 C1.32 0.33 2.64 0.66 4 1 C4 1.66 4 2.32 4 3 C4.66 3 5.32 3 6 3 C7.6875 5.3125 7.6875 5.3125 9 8 C8.67 8.99 8.34 9.98 8 11 C6.66072279 9.54712339 5.32873153 8.08752741 4 6.625 C3.2575 5.81289063 2.515 5.00078125 1.75 4.1640625 C0 2 0 2 0 0 Z " fill="#AAE0EB" transform="translate(130,57)"/>
<path d="M0 0 C3.88375805 0.57537156 6.17781201 2.33036271 9 5 C9.8125 7.25 9.8125 7.25 10 9 C8.02 8.01 6.04 7.02 4 6 C4 5.34 4 4.68 4 4 C2.68 3.34 1.36 2.68 0 2 C0 1.34 0 0.68 0 0 Z " fill="#8BD7EC" transform="translate(81,107)"/>
<path d="M0 0 C0.515625 0.680625 1.03125 1.36125 1.5625 2.0625 C0.10507537 2.14346803 -1.35362807 2.20167774 -2.8125 2.25 C-3.62460937 2.28480469 -4.43671875 2.31960937 -5.2734375 2.35546875 C-5.98757812 2.25878906 -6.70171875 2.16210938 -7.4375 2.0625 C-8.0975 1.0725 -8.7575 0.0825 -9.4375 -0.9375 C-3.0375 -2.41442308 -3.0375 -2.41442308 0 0 Z " fill="#357BB8" transform="translate(60.4375,136.9375)"/>
<path d="M0 0 C1.98 0 3.96 0 6 0 C6 1.32 6 2.64 6 4 C7.32 4.33 8.64 4.66 10 5 C10 5.66 10 6.32 10 7 C6.4124787 5.66749209 3.1635377 4.169283 0 2 C0 1.34 0 0.68 0 0 Z " fill="#3A77B4" transform="translate(59,142)"/>
<path d="M0 0 C0.33 0.66 0.66 1.32 1 2 C2.65 2 4.3 2 6 2 C4.19873295 4.27528469 3.3633843 4.94682181 0.4375 5.375 C-0.7690625 5.189375 -0.7690625 5.189375 -2 5 C-2.66 4.01 -3.32 3.02 -4 2 C-2.68 1.34 -1.36 0.68 0 0 Z " fill="#75B8D2" transform="translate(68,42)"/>
<path d="M0 0 C3.63 0 7.26 0 11 0 C11 0.99 11 1.98 11 3 C3.57142857 3.28571429 3.57142857 3.28571429 0 1 C0 0.67 0 0.34 0 0 Z " fill="#488AC8" transform="translate(77,151)"/>
<path d="M0 0 C0.99 0 1.98 0 3 0 C3 2.97 3 5.94 3 9 C2.01 9 1.02 9 0 9 C0 6.03 0 3.06 0 0 Z " fill="#5FAAE0" transform="translate(95,137)"/>
<path d="M0 0 C0 0.33 0 0.66 0 1 C-0.68707031 1.13277344 -1.37414062 1.26554687 -2.08203125 1.40234375 C-3.43361328 1.66724609 -3.43361328 1.66724609 -4.8125 1.9375 C-6.15248047 2.19853516 -6.15248047 2.19853516 -7.51953125 2.46484375 C-10.11397171 2.97741153 -10.11397171 2.97741153 -13 4 C-13 3.01 -13 2.02 -13 1 C-8.23947038 -0.97387813 -5.03511899 -1.0070238 0 0 Z " fill="#C5EDF2" transform="translate(99,77)"/>
<path d="M0 0 C2.31 0 4.62 0 7 0 C7 0.99 7 1.98 7 3 C5.02 3 3.04 3 1 3 C0.67 4.32 0.34 5.64 0 7 C0 4.69 0 2.38 0 0 Z " fill="#143E6A" transform="translate(36,105)"/>
<path d="M0 0 C1.9453125 -0.29296875 1.9453125 -0.29296875 4.125 -0.1875 C5.40375 -0.125625 6.6825 -0.06375 8 0 C6.375 2.0625 6.375 2.0625 4 4 C0.75 3.75 0.75 3.75 -2 3 C-1.34 2.01 -0.68 1.02 0 0 Z " fill="#6CB2CE" transform="translate(54,52)"/>
<path d="M0 0 C1.98 0.99 1.98 0.99 4 2 C4 4.31 4 6.62 4 9 C3.01 8.34 2.02 7.68 1 7 C0.3125 3.375 0.3125 3.375 0 0 Z " fill="#4F91CE" transform="translate(99,158)"/>
<path d="M0 0 C1.06671952 3.20015856 0.94845472 4.88544294 0.5625 8.1875 C0.46066406 9.08855469 0.35882813 9.98960938 0.25390625 10.91796875 C0.17011719 11.60503906 0.08632812 12.29210937 0 13 C-2 11 -2 11 -2.265625 8.90625 C-2.25789063 7.71515625 -2.25789063 7.71515625 -2.25 6.5 C-2.25515625 5.7059375 -2.2603125 4.911875 -2.265625 4.09375 C-2 2 -2 2 0 0 Z " fill="#B3ECF6" transform="translate(79,88)"/>
<path d="M0 0 C2.64 0 5.28 0 8 0 C8 0.33 8 0.66 8 1 C6.35 1.33 4.7 1.66 3 2 C3.99 3.485 3.99 3.485 5 5 C2.69 5 0.38 5 -2 5 C-1.34 3.35 -0.68 1.7 0 0 Z " fill="#4983A6" transform="translate(44,63)"/>
<path d="M0 0 C-1.36983503 3.16115776 -1.9890638 3.9927092 -5 6 C-5.66 5.67 -6.32 5.34 -7 5 C-7 4.01 -7 3.02 -7 2 C-4 0 -4 0 0 0 Z " fill="#75C6E4" transform="translate(119,113)"/>
<path d="M0 0 C4.1666604 0.47348414 6.92884715 1.04696841 10 4 C10 4.66 10 5.32 10 6 C6.40992874 4.66654496 3.20429093 3.1056769 0 1 C0 0.67 0 0.34 0 0 Z " fill="#C9EFF5" transform="translate(105,69)"/>
<path d="M0 0 C0.99 0 1.98 0 3 0 C3 1.98 3 3.96 3 6 C1.68 6.33 0.36 6.66 -1 7 C-0.67 4.69 -0.34 2.38 0 0 Z " fill="#78BFE0" transform="translate(136,104)"/>
<path d="M0 0 C2.31 0.33 4.62 0.66 7 1 C7 1.99 7 2.98 7 4 C4.69 4 2.38 4 0 4 C0 2.68 0 1.36 0 0 Z " fill="#14406E" transform="translate(35,88)"/>
<path d="M0 0 C-1.15585285 3.91211733 -2.35534962 6.8745041 -5 10 C-6.05609899 6.83170302 -6.13055309 6.01480825 -5 3 C-2.53571429 0 -2.53571429 0 0 0 Z " fill="#A0D6E7" transform="translate(62,72)"/>
<path d="M0 0 C0 2.31 0 4.62 0 7 C-0.99 7 -1.98 7 -3 7 C-3.33 5.02 -3.66 3.04 -4 1 C-1 0 -1 0 0 0 Z " fill="#89C3DA" transform="translate(139,81)"/>
<path d="M0 0 C2.31 0 4.62 0 7 0 C7 0.33 7 0.66 7 1 C5.02 1 3.04 1 1 1 C1.27617533 2.94074861 1.27617533 2.94074861 2 5 C2.99 5.66 3.98 6.32 5 7 C3.35 7.33 1.7 7.66 0 8 C0 5.36 0 2.72 0 0 Z " fill="#B8E0E8" transform="translate(104,38)"/>
<path d="M0 0 C1.98 0.99 3.96 1.98 6 3 C5.01 3.99 4.02 4.98 3 6 C2.01 5.67 1.02 5.34 0 5 C-0.33 4.01 -0.66 3.02 -1 2 C-0.67 1.34 -0.34 0.68 0 0 Z " fill="#A5D3DF" transform="translate(91,28)"/>
<path d="M0 0 C0.66 0.33 1.32 0.66 2 1 C2 3.64 2 6.28 2 9 C1.34 9 0.68 9 0 9 C-0.87890625 2.84765625 -0.87890625 2.84765625 -1 1 C-0.67 0.67 -0.34 0.34 0 0 Z " fill="#6BB5D6" transform="translate(92,123)"/>
<path d="M0 0 C2.0625 0.4375 2.0625 0.4375 4 1 C0.71195019 3.91227269 -1.59885603 5.49701212 -6 6 C-4 4 -2 2 0 0 Z " fill="#AAD6E1" transform="translate(81,70)"/>
<path d="M0 0 C0.99 0.66 1.98 1.32 3 2 C3 2.66 3 3.32 3 4 C0.625 4.625 0.625 4.625 -2 5 C-2.66 4.34 -3.32 3.68 -4 3 C-2.68 2.01 -1.36 1.02 0 0 Z " fill="#52A4D9" transform="translate(71,139)"/>
<path d="M0 0 C4 4.75 4 4.75 4 7 C2.68 7 1.36 7 0 7 C0 4.69 0 2.38 0 0 Z " fill="#E8E7E8" transform="translate(0,185)"/>
<path d="M0 0 C-0.66 1.32 -1.32 2.64 -2 4 C-3.32 4 -4.64 4 -6 4 C-5.67 3.01 -5.34 2.02 -5 1 C-2 0 -2 0 0 0 Z " fill="#65AEDD" transform="translate(129,125)"/>
<path d="M0 0 C0.99 0 1.98 0 3 0 C3 1.65 3 3.3 3 5 C1.35 5.33 -0.3 5.66 -2 6 C-1.34 4.02 -0.68 2.04 0 0 Z " fill="#4AA7DE" transform="translate(144,115)"/>
<path d="M0 0 C0.66 0.33 1.32 0.66 2 1 C2 2.65 2 4.3 2 6 C1.01 6.495 1.01 6.495 0 7 C-0.66 5.02 -1.32 3.04 -2 1 C-1.34 0.67 -0.68 0.34 0 0 Z " fill="#7EBDE0" transform="translate(160,92)"/>
<path d="M0 0 C2.31 0.33 4.62 0.66 7 1 C7 1.66 7 2.32 7 3 C4.03 3 1.06 3 -2 3 C-1.34 2.01 -0.68 1.02 0 0 Z " fill="#153D61" transform="translate(46,60)"/>
<path d="M0 0 C2.475 0.99 2.475 0.99 5 2 C5 2.99 5 3.98 5 5 C3.35 5 1.7 5 0 5 C0 3.35 0 1.7 0 0 Z " fill="#5BA1CC" transform="translate(76,132)"/>
<path d="M0 0 C-3.625 3 -3.625 3 -7 3 C-6.67 2.01 -6.34 1.02 -6 0 C-3.50907189 -1.24546405 -2.58919267 -0.7767578 0 0 Z " fill="#8AD7EF" transform="translate(114,119)"/>
<path d="M0 0 C2.31 0.66 4.62 1.32 7 2 C6.01 3.485 6.01 3.485 5 5 C2.525 4.01 2.525 4.01 0 3 C0 2.01 0 1.02 0 0 Z " fill="#7AC0E3" transform="translate(145,105)"/>
<path d="M0 0 C0.598125 0.20625 1.19625 0.4125 1.8125 0.625 C-3.9375 4.5 -3.9375 4.5 -6.1875 5.625 C-5.875 3.75 -5.875 3.75 -5.1875 1.625 C-2.1875 -0.375 -2.1875 -0.375 0 0 Z " fill="#1E243E" transform="translate(10.1875,2.375)"/>
</svg>
