<?xml version="1.0" encoding="UTF-8"?>
<svg version="1.1" xmlns="http://www.w3.org/2000/svg" width="192" height="192">
<path d="M0 0 C63.36 0 126.72 0 192 0 C192 63.36 192 126.72 192 192 C128.64 192 65.28 192 0 192 C0 128.64 0 65.28 0 0 Z " fill="#F8F9F8" transform="translate(0,0)"/>
<path d="M0 0 C2.45309919 0.29452392 3.68620503 0.67760497 5.42529297 2.46435547 C5.85986816 3.09229004 6.29444336 3.72022461 6.7421875 4.3671875 C7.49495972 5.43404785 7.49495972 5.43404785 8.26293945 6.52246094 C8.79491943 7.29879883 9.32689941 8.07513672 9.875 8.875 C11.03119586 10.52438902 12.18879547 12.17279476 13.34765625 13.8203125 C13.94594238 14.6752832 14.54422852 15.53025391 15.16064453 16.41113281 C17.54836161 19.77181132 20.02703096 23.05904151 22.5090332 26.3503418 C34.04860984 41.70468033 44.01492067 55.918712 42 76 C39.72281233 86.0736607 34.36989547 93.97367526 26 100 C16.84085004 105.25408603 6.70240534 106.94786262 -3.703125 104.31640625 C-5.95256646 103.36865207 -7.93912882 102.30630023 -10 101 C-11.04414062 100.34644531 -11.04414062 100.34644531 -12.109375 99.6796875 C-21.05676286 93.52415374 -26.24179634 84.85483193 -28.6015625 74.3125 C-29.13197733 69.9027767 -29.10592871 65.56140991 -29.0625 61.125 C-29.05798828 60.24585938 -29.05347656 59.36671875 -29.04882812 58.4609375 C-29.03712337 56.30726197 -29.01919069 54.15362183 -29 52 C-32.60979748 66.39948026 -32.07486051 79.98614193 -25.1015625 93.1875 C-22.37733814 97.66991171 -18.76615828 101.37332906 -15 105 C-26.10968302 103.06021408 -35.36010598 98.03155618 -42.50390625 89.125 C-48.06526692 80.890866 -50.49461961 71.03458465 -49.41845703 61.12939453 C-48.21468045 55.00375896 -45.44505587 49.25274154 -42.9453125 43.56640625 C-40.14769155 37.13823931 -38.7405115 31.62314614 -38.875 24.5625 C-38.90207031 22.70818359 -38.90207031 22.70818359 -38.9296875 20.81640625 C-38.95289063 19.88699219 -38.97609375 18.95757812 -39 18 C-24.35778976 22.64367239 -12.30206027 32.07205189 -5.07617188 45.74853516 C-0.27615618 55.4807484 2.06209957 64.77860817 -0.99609375 75.48828125 C-2.689254 80.14579061 -4.47343107 84.52465233 -7.375 88.5625 C-9.16127873 90.817996 -9.16127873 90.817996 -9.1875 93.1875 C-7.12183075 96.34036359 -4.5267332 97.21442436 -1 98 C10.1230478 99.29876049 18.82521723 97.65136999 27.7109375 90.65234375 C33.07462525 85.07735921 35.21460356 76.57137888 35.5 69.0625 C34.73146765 49.87398263 20.19139383 33.75407322 8.5625 19.5 C3.86669927 13.69026699 0.78490884 8.28837777 -1 1 C-0.67 0.67 -0.34 0.34 0 0 Z " fill="#81A668" transform="translate(98,52)"/>
<path d="M0 0 C0.66 0 1.32 0 2 0 C3.32 3.3 4.64 6.6 6 10 C5.01 10.66 4.02 11.32 3 12 C5.55878495 20.46747677 10.45792927 27.28926984 16.125 34 C20.30429033 38.9993232 24.09527789 44.21136848 27.8125 49.5625 C28.36373535 50.34173828 28.9149707 51.12097656 29.48291016 51.92382812 C36.58058477 62.26584439 40.078226 72.42575871 39 85 C37.05653395 93.48461748 33.63316712 99.77754991 26.47265625 104.7578125 C18.48630842 109.36738239 11.09429383 110.21669691 2 109 C-1.34511356 108.04009785 -3.12171636 107.07236422 -6 105 C-6.83203125 103.08203125 -6.83203125 103.08203125 -7 101 C-6.14453125 99.24609375 -6.14453125 99.24609375 -4.8125 97.4375 C0.99626777 88.6432203 3.56282086 79.52536171 2 69 C-1.00751696 57.72757294 -6.69771098 49.07790283 -15 41 C-16.02813611 39.68824014 -17.04084432 38.3630107 -18 37 C-17.34 37 -16.68 37 -16 37 C-16.34786708 35.02463255 -16.34786708 35.02463255 -17 33 C-17.66 32.67 -18.32 32.34 -19 32 C-17.72630464 29.32977299 -16.33605182 26.93158728 -14.609375 24.53125 C-14.14958252 23.88285156 -13.68979004 23.23445313 -13.21606445 22.56640625 C-12.73226318 21.88449219 -12.24846191 21.20257813 -11.75 20.5 C-7.1391514 13.91846459 -3.29741279 7.34613481 0 0 Z " fill="#F6F7F1" transform="translate(95,42)"/>
<path d="M0 0 C9.73053584 4.66120591 18.48492303 12.78792121 22.9375 22.75 C23.288125 23.8225 23.63875 24.895 24 26 C24.391875 27.0725 24.78375 28.145 25.1875 29.25 C27.41110861 39.51280899 25.5796094 47.59567535 21 57 C19.45703125 59.37890625 19.45703125 59.37890625 18 61 C17.34 61 16.68 61 16 61 C16 60.01 16 59.02 16 58 C15.34 58 14.68 58 14 58 C7.88942916 47.08309083 5.6391103 36.42959351 5 24 C2.84773109 24.78860307 2.84773109 24.78860307 2.3671875 26.7578125 C-0.28685124 39.522475 -0.12788489 51.74423023 5.75 63.5 C6.1625 64.325 6.575 65.15 7 66 C6.67 66.66 6.34 67.32 6 68 C-1.49412008 63.21154925 -7.90183728 56.75956211 -10.4375 48 C-10.67300305 46.67430307 -10.8591802 45.33906826 -11 44 C-11.08121094 43.25363281 -11.16242187 42.50726563 -11.24609375 41.73828125 C-11.77698916 31.74779491 -7.71962148 22.56088877 -3.94921875 13.5 C-2.27966519 9.1028219 -1.14371586 4.55753443 0 0 Z " fill="#ACCA7F" transform="translate(66,79)"/>
<path d="M0 0 C63.36 0 126.72 0 192 0 C192 1.98 192 3.96 192 6 C128.64 6 65.28 6 0 6 C0 4.02 0 2.04 0 0 Z " fill="#FEFEFE" transform="translate(0,0)"/>
<path d="M0 0 C63.36 0 126.72 0 192 0 C192 61.38 192 122.76 192 186 C190.35 186 188.7 186 187 186 C187.48714289 185.15715958 187.97428577 184.31431915 188.47619057 183.44593811 C190.17527981 179.60362276 190.37713629 177.04804621 190.38095093 172.86499023 C190.38797089 171.82234465 190.38797089 171.82234465 190.39513266 170.75863552 C190.4070483 168.44175779 190.39763929 166.12547532 190.38818359 163.80859375 C190.39225083 162.1425848 190.39759357 160.47657855 190.40411377 158.81057739 C190.41777507 154.2940775 190.41249362 149.77778349 190.40297651 145.26128006 C190.39537378 140.53152162 190.40242723 135.80178063 190.40713501 131.07202148 C190.41259077 123.1296879 190.40540565 115.18743805 190.39111328 107.24511719 C190.37478712 98.06669753 190.38007575 88.8884778 190.3965925 79.71006298 C190.41021247 71.82539504 190.41212452 63.94078724 190.40427649 56.05611134 C190.39960279 51.34880611 190.3989668 46.64159482 190.40888596 41.93429565 C190.41756077 37.5084791 190.41152432 33.08291998 190.39420319 28.6571312 C190.3902411 27.03419293 190.39136765 25.41123296 190.39799118 23.78830338 C190.406208 21.57024774 190.39588437 19.3530133 190.38095093 17.13500977 C190.37981985 15.89469498 190.37868877 14.65438019 190.37752342 13.3764801 C189.95873535 9.63093874 188.95944588 7.20199952 187 4 C184.03004147 2.51502074 181.35085764 2.86026366 178.03556824 2.84609985 C177.3105149 2.8417176 176.58546156 2.83733535 175.8384369 2.8328203 C173.39643909 2.81941103 170.95447738 2.8132487 168.51245117 2.80712891 C166.76659481 2.79922967 165.02074008 2.79096083 163.27488708 2.78234863 C157.53093021 2.75610982 151.78696598 2.74082003 146.04296875 2.7265625 C144.06749275 2.72120375 142.09201681 2.71582625 140.11654091 2.71043015 C131.90098166 2.68879949 123.68542439 2.67006159 115.46984386 2.65880775 C103.68570539 2.64256081 91.90189625 2.60936707 80.11788195 2.55240691 C71.83757714 2.5137434 63.55736055 2.49417937 55.27696782 2.48888719 C50.32862702 2.48522905 45.38063733 2.47315873 40.43239403 2.44078445 C35.77756933 2.41076661 31.12330935 2.40436942 26.46840858 2.41616821 C24.75956241 2.41638947 23.05069051 2.40804133 21.3419342 2.39051437 C19.00906721 2.36788747 16.67825922 2.37608517 14.34538269 2.39199829 C13.03995608 2.38868814 11.73452948 2.385378 10.38954449 2.38196754 C6.0186406 3.17893613 4.57136797 4.40465434 2 8 C1.25756941 11.37046762 1.25756941 11.37046762 1.37854004 15.13537598 C1.37215122 15.84257483 1.3657624 16.54977368 1.35917997 17.27840281 C1.34394773 19.642562 1.36437714 22.00504043 1.38476562 24.36914062 C1.38126386 26.06618301 1.37560466 27.76322212 1.36795044 29.46025085 C1.35370063 34.06573351 1.37076578 38.67061925 1.39423561 43.27604485 C1.41434011 48.09568944 1.40846526 52.91530914 1.40612793 57.73498535 C1.40618151 65.82879483 1.42594101 73.92237089 1.45800781 82.01611328 C1.49490079 91.37347629 1.5036834 100.73053352 1.4967103 110.08795977 C1.49040493 119.08962159 1.50116023 128.09117855 1.52067566 137.09281921 C1.52885018 140.92365513 1.53155911 144.75443746 1.52998352 148.58528137 C1.52910454 153.09646958 1.54332449 157.60736722 1.56921005 162.11847878 C1.57637185 163.77407739 1.5784554 165.42970692 1.57509232 167.08531761 C1.57137707 169.34540158 1.58612556 171.60463779 1.60559082 173.86462402 C1.60931953 175.12928246 1.61304825 176.39394089 1.61688995 177.6969223 C2.02632899 181.22700188 2.94559996 183.13978415 5 186 C3.35 186 1.7 186 0 186 C0 124.62 0 63.24 0 0 Z " fill="#EBEBEA" transform="translate(0,6)"/>
<path d="M0 0 C3.03163292 2.78599954 4.91417114 5.35361346 6.6875 9.0625 C7.10386719 9.91972656 7.52023438 10.77695313 7.94921875 11.66015625 C10.93461935 18.30794421 11.23021587 25.8322126 9.1640625 32.83203125 C6.05207515 39.63036604 1.39123857 44.0822013 -4.76953125 48.17578125 C-8.02267809 49.37790732 -11.2071398 49.24970244 -14.625 49.1875 C-15.305625 49.18685547 -15.98625 49.18621094 -16.6875 49.18554688 C-21.71838846 49.14080577 -21.71838846 49.14080577 -24 48 C-20.217904 31.71708142 -20.217904 31.71708142 -13.8125 27.6875 C-11.65493741 26.57777852 -10.425646 26 -8 26 C-7.7525 25.484375 -7.505 24.96875 -7.25 24.4375 C-6.19473418 22.37973165 -5.08843974 20.37972777 -3.9375 18.375 C-1.39424931 13.94482137 -0.78802266 11.48261584 -0.4375 6.375 C-0.35371094 5.18648438 -0.26992187 3.99796875 -0.18359375 2.7734375 C-0.09271484 1.40058594 -0.09271484 1.40058594 0 0 Z " fill="#F7C1A2" transform="translate(119,97)"/>
<path d="M0 0 C2.45309919 0.29452392 3.68620503 0.67760497 5.42529297 2.46435547 C5.85986816 3.09229004 6.29444336 3.72022461 6.7421875 4.3671875 C7.49495972 5.43404785 7.49495972 5.43404785 8.26293945 6.52246094 C8.79491943 7.29879883 9.32689941 8.07513672 9.875 8.875 C11.03119586 10.52438902 12.18879547 12.17279476 13.34765625 13.8203125 C13.94594238 14.6752832 14.54422852 15.53025391 15.16064453 16.41113281 C17.54836161 19.77181132 20.02703096 23.05904151 22.5090332 26.3503418 C34.04860984 41.70468033 44.01492067 55.918712 42 76 C39.72281233 86.0736607 34.36989547 93.97367526 26 100 C19.35859649 104.11321637 19.35859649 104.11321637 15 103.75 C14.01 103.37875 14.01 103.37875 13 103 C13.140625 100.68359375 13.140625 100.68359375 14 98 C16.546875 96.41015625 16.546875 96.41015625 19.75 95.0625 C27.19287786 91.57034404 30.11437703 88.53510896 33.3125 80.875 C36.77284842 70.43745927 35.45683213 60.92175724 31 51 C24.96451325 39.78186702 16.60197113 29.35435174 8.5625 19.5 C3.86669927 13.69026699 0.78490884 8.28837777 -1 1 C-0.67 0.67 -0.34 0.34 0 0 Z " fill="#92B177" transform="translate(98,52)"/>
<path d="M0 0 C0.66 0 1.32 0 2 0 C3.32 3.3 4.64 6.6 6 10 C5.01 10.66 4.02 11.32 3 12 C2.67 12.99 2.34 13.98 2 15 C1.34 15 0.68 15 0 15 C-1.73050057 17.38648793 -3.34982323 19.7711165 -4.9375 22.25 C-5.82061581 23.61002406 -6.70470473 24.96941682 -7.58984375 26.328125 C-8.00476074 26.96685547 -8.41967773 27.60558594 -8.84716797 28.26367188 C-10.15665797 30.23594906 -11.54295271 32.13421007 -13 34 C-15.16874252 33.49396008 -16.99967627 33.00016187 -19 32 C-17.72630464 29.32977299 -16.33605182 26.93158728 -14.609375 24.53125 C-14.14958252 23.88285156 -13.68979004 23.23445313 -13.21606445 22.56640625 C-12.73226318 21.88449219 -12.24846191 21.20257813 -11.75 20.5 C-7.1391514 13.91846459 -3.29741279 7.34613481 0 0 Z " fill="#F1C7A9" transform="translate(95,42)"/>
<path d="M0 0 C1.46533285 2.9306657 1.11251133 5.50120946 1.10006714 8.77461243 C1.09880487 9.47924801 1.09754259 10.18388358 1.09624207 10.90987176 C1.09084309 13.28280808 1.07831562 15.65565513 1.06591797 18.02856445 C1.06072726 19.72515732 1.05601863 21.42175171 1.05175781 23.11834717 C1.04180081 26.77808834 1.02894512 30.43780417 1.01403427 34.09752846 C0.99101659 39.88330234 0.97768081 45.66907267 0.96633911 51.45487976 C0.93286743 67.90966175 0.89127704 84.36439322 0.82861328 100.8190918 C0.79410405 109.90211989 0.77028547 118.98511031 0.75840485 128.06819695 C0.75162804 132.87673343 0.73914835 137.68511036 0.71337509 142.49358559 C0.68913211 147.01696295 0.67873013 151.54015834 0.67897034 156.06359863 C0.67654693 157.72406284 0.66896165 159.38452872 0.65584183 161.04494286 C0.63867809 163.31167155 0.64002887 165.57766775 0.64596558 167.84443665 C0.64190138 169.11299153 0.63783718 170.38154642 0.63364983 171.68854237 C1.02578478 175.23306996 1.93564703 177.13259709 4 180 C2.35 180 0.7 180 -1 180 C-1.02332641 156.6785713 -1.0409779 133.35714451 -1.05181217 110.03570652 C-1.05697568 99.2079638 -1.06401942 88.38022831 -1.07543945 77.55249023 C-1.08538462 68.11865593 -1.09185303 58.68482687 -1.09408849 49.25098747 C-1.09539589 44.25258514 -1.09848353 39.25419779 -1.10573006 34.25580025 C-1.11248764 29.5568499 -1.1146175 24.85792081 -1.11310768 20.15896606 C-1.11338413 18.42911094 -1.1153908 16.69925516 -1.11920547 14.96940422 C-1.12413864 12.61817177 -1.1229997 10.26702085 -1.12025452 7.91578674 C-1.12117631 6.59670098 -1.1220981 5.27761522 -1.12304783 3.91855717 C-1 1 -1 1 0 0 Z " fill="#DEDEDD" transform="translate(1,12)"/>
<path d="M0 0 C0.33 0 0.66 0 1 0 C1 58.41 1 116.82 1 177 C-0.65 177 -2.3 177 -4 177 C-3.51322375 176.15877531 -3.02644751 175.31755062 -2.52492046 174.45083427 C-0.81832013 170.58886568 -0.61671108 167.99209841 -0.60127258 163.78665161 C-0.59130234 162.73153061 -0.59130234 162.73153061 -0.58113068 161.65509403 C-0.56255605 159.31044074 -0.56510214 156.96630025 -0.56762695 154.62158203 C-0.55860639 152.93598208 -0.54827844 151.25038869 -0.53674316 149.56480408 C-0.50918162 144.99710587 -0.49988979 140.42953216 -0.49388909 135.86176157 C-0.48450325 131.08510823 -0.45829966 126.3085478 -0.43388367 121.5319519 C-0.39022081 112.4904737 -0.36167251 103.44901354 -0.33856028 94.407462 C-0.31150749 84.11242294 -0.26759601 73.81747735 -0.22227156 63.52250504 C-0.12942834 42.34838699 -0.05774609 21.17424095 0 0 Z " fill="#DDDEDD" transform="translate(191,15)"/>
<path d="M0 0 C0.33 0 0.66 0 1 0 C1 7.92 1 15.84 1 24 C0.01 24 -0.98 24 -2 24 C-2.33 24.66 -2.66 25.32 -3 26 C-3.41001353 8.91610284 -3.41001353 8.91610284 -1 1 C-0.67 0.67 -0.34 0.34 0 0 Z " fill="#E7F1D6" transform="translate(69,103)"/>
<path d="M0 0 C4.23429756 1.31061591 8.07407404 2.94356259 12 5 C9.10765685 5.82638376 7.11257569 6 4 6 C3.34 7.98 2.68 9.96 2 12 C1.67 12 1.34 12 1 12 C0.67 8.04 0.34 4.08 0 0 Z " fill="#A2BC79" transform="translate(59,70)"/>
<path d="M0 0 C2.2477975 2.05233685 3.0022242 3.00667261 4 6 C3.01 6.66 2.02 7.32 1 8 C0.67 8.99 0.34 9.98 0 11 C-0.84098656 6.98195309 -1.05404945 3.98196457 0 0 Z " fill="#CBCE97" transform="translate(97,46)"/>
<path d="M0 0 C1.32 1.32 2.64 2.64 4 4 C3.67 4.66 3.34 5.32 3 6 C2.34 5.67 1.68 5.34 1 5 C1 7.64 1 10.28 1 13 C0.67 13 0.34 13 0 13 C0 8.71 0 4.42 0 0 Z " fill="#EECDB7" transform="translate(119,97)"/>
<path d="M0 0 C1.98 0.66 3.96 1.32 6 2 C4.68 2.33 3.36 2.66 2 3 C2 5.97 2 8.94 2 12 C1.67 12 1.34 12 1 12 C0.67 8.04 0.34 4.08 0 0 Z " fill="#B5C696" transform="translate(59,70)"/>
<path d="M0 0 C0.99 0.495 0.99 0.495 2 1 C2.40729228 3.32156597 2.74438677 5.6568787 3 8 C2.01 8 1.02 8 0 8 C0 5.36 0 2.72 0 0 Z " fill="#EDF4E3" transform="translate(67,119)"/>
</svg>
