<?xml version="1.0" encoding="UTF-8"?>
<svg version="1.1" xmlns="http://www.w3.org/2000/svg" width="192" height="192">
<path d="M0 0 C63.36 0 126.72 0 192 0 C192 63.36 192 126.72 192 192 C128.64 192 65.28 192 0 192 C0 128.64 0 65.28 0 0 Z " fill="#12456E" transform="translate(0,0)"/>
<path d="M0 0 C-0.66979104 7.32150894 -2.01670597 14.37910423 -3.5625 21.5625 C-3.91344727 23.21862305 -3.91344727 23.21862305 -4.27148438 24.90820312 C-4.84381062 27.60631255 -5.42006002 30.30351875 -6 33 C-9.90034574 31.10614981 -12.72092608 28.83192748 -16 26 C-19.91222909 29.82077438 -23.76189133 33.65001459 -27.3125 37.8125 C-30.22252335 41.20197799 -33.32184725 44.36424409 -36.5 47.5 C-40.25641354 51.21137718 -43.86507669 54.99294167 -47.296875 59.0078125 C-49.31320831 61.36636752 -51.37333611 63.68322864 -53.4375 66 C-54.11683594 66.763125 -54.79617187 67.52625 -55.49609375 68.3125 C-55.99238281 68.869375 -56.48867187 69.42625 -57 70 C-59.93230193 68.67879172 -61.98664899 67.25361803 -64.234375 64.9609375 C-64.80800781 64.38085938 -65.38164063 63.80078125 -65.97265625 63.203125 C-66.55917969 62.59984375 -67.14570312 61.9965625 -67.75 61.375 C-68.35199219 60.76398438 -68.95398438 60.15296875 -69.57421875 59.5234375 C-71.05405305 58.02011376 -72.52764676 56.51065144 -74 55 C-80.01632733 57.70013819 -84.02394024 62.82466417 -88.25 67.75 C-92.13975463 72.27770983 -96.37994008 76.41155519 -100.64453125 80.58203125 C-103.10724266 82.9623308 -103.10724266 82.9623308 -105 86 C-105.66 86 -106.32 86 -107 86 C-109.74299465 82.73915385 -112 79.50622497 -112 75.1875 C-110.94131767 72.87163241 -110.02498373 71.53898764 -108 70 C-107.34 70 -106.68 70 -106 70 C-105.7525 69.43796875 -105.505 68.8759375 -105.25 68.296875 C-103.78725133 65.60907431 -102.03195127 63.53594518 -100 61.25 C-99.29875 60.45078125 -98.5975 59.6515625 -97.875 58.828125 C-96 57 -96 57 -94 57 C-93.73646729 56.40977051 -93.47293457 55.81954102 -93.20141602 55.21142578 C-91.95023299 52.90839473 -90.65195022 51.43638558 -88.77734375 49.6171875 C-88.15666016 49.00746094 -87.53597656 48.39773437 -86.89648438 47.76953125 C-86.25001953 47.14433594 -85.60355469 46.51914063 -84.9375 45.875 C-83.6527607 44.62463926 -82.37010319 43.37213484 -81.08984375 42.1171875 C-80.52128662 41.56659668 -79.95272949 41.01600586 -79.36694336 40.44873047 C-77.89270095 39.02585988 -77.89270095 39.02585988 -77 37 C-73.57245533 37.58110671 -71.95461339 38.68553624 -69.546875 41.16015625 C-68.61875 42.1027832 -68.61875 42.1027832 -67.671875 43.06445312 C-67.03765625 43.72380859 -66.4034375 44.38316406 -65.75 45.0625 C-64.77546875 46.05733398 -64.77546875 46.05733398 -63.78125 47.07226562 C-62.1805324 48.70829317 -60.58723807 50.35090912 -59 52 C-55.58123693 49.22764171 -52.44246097 46.58418518 -49.625 43.1875 C-47.18981611 40.32857265 -44.67880839 37.63226539 -42 35 C-38.69183601 31.74302616 -35.62175042 28.35049302 -32.61328125 24.81640625 C-31.15225115 23.17142079 -29.63234585 21.72046032 -28 20.25 C-25.81732255 18.25883947 -25.81732255 18.25883947 -25.875 16.0625 C-27.54073185 13.00865827 -29.69250376 10.60332909 -32 8 C-24.66531894 5.60187819 -17.32226313 3.51398997 -9.8125 1.75 C-8.69887085 1.48751465 -8.69887085 1.48751465 -7.56274414 1.21972656 C-2.27092241 0 -2.27092241 0 0 0 Z " fill="#F4F7F8" transform="translate(158,43)"/>
<path d="M0 0 C63.36 0 126.72 0 192 0 C192 63.36 192 126.72 192 192 C128.64 192 65.28 192 0 192 C0 128.64 0 65.28 0 0 Z M3 6 C1.53264345 8.9347131 1.86381764 11.53461073 1.85282898 14.81257629 C1.84915229 15.52129543 1.8454756 16.23001456 1.8416875 16.96021003 C1.83063029 19.34693436 1.8268034 21.73361519 1.82299805 24.12036133 C1.81673497 25.82680907 1.81008831 27.53325545 1.80308533 29.23970032 C1.78566197 33.88439282 1.77512008 38.52907502 1.7668798 43.17379212 C1.76173281 46.07410693 1.75565697 48.97441852 1.74936867 51.87473106 C1.73031346 60.94470228 1.71608263 70.01466533 1.7077567 79.08465272 C1.69797995 89.56278187 1.67165041 100.04070001 1.63125581 110.51875478 C1.60112224 118.61222637 1.58629048 126.70563738 1.58297569 134.799164 C1.58062217 139.63566768 1.57162269 144.47194603 1.54651451 149.30838966 C1.52327676 153.85810233 1.51898315 158.40744061 1.52927589 162.95719719 C1.5297724 164.62733326 1.5234181 166.29748748 1.50971985 167.96756744 C1.49206423 170.24765343 1.49907449 172.52638655 1.51225281 174.80647278 C1.50986445 176.08240201 1.5074761 177.35833124 1.50501537 178.672925 C2.08649344 182.58137191 3.2460656 184.2218875 6 187 C8.93540403 188.46770202 11.53390573 188.13279132 14.81257629 188.14044189 C15.52129543 188.14341302 16.23001456 188.14638414 16.96021003 188.1494453 C19.34693893 188.15815163 21.73361778 188.15964217 24.12036133 188.16113281 C25.82680875 188.16575964 27.53325514 188.17078411 29.23970032 188.17617798 C33.88439718 188.18931747 38.52907957 188.19575 43.17379212 188.20018864 C46.0741071 188.203117 48.97441809 188.20722136 51.87473106 188.21169281 C60.94470477 188.22537211 70.01466941 188.23503652 79.08465272 188.2388947 C89.56274343 188.24337602 100.04070373 188.26092552 110.51875478 188.2898953 C118.61222725 188.31149711 126.705663 188.32159819 134.799164 188.32293582 C139.63562349 188.32398497 144.47196046 188.32991602 149.30838966 188.34775543 C153.85805745 188.3642101 158.40751029 188.36640433 162.95719719 188.35761642 C164.62732645 188.35684464 166.29746715 188.36120739 167.96756744 188.37107468 C170.24745967 188.38375493 172.52658611 188.37793926 174.80647278 188.36749268 C176.08240201 188.36895924 177.35833124 188.3704258 178.672925 188.3719368 C183.17794524 187.86831641 185.58944065 186.37962711 188.78827 183.25094509 C190.4929463 180.08428853 190.38078995 177.57350371 190.38768005 173.98487854 C190.39306559 173.27853411 190.39845113 172.57218968 190.40399987 171.84444088 C190.41830752 169.47757829 190.41116906 167.11127277 190.40405273 164.74438477 C190.40975486 163.04749094 190.4167185 161.35060096 190.42485046 159.65371704 C190.44281465 155.04420589 190.44160736 150.43488476 190.43590808 145.82534909 C190.43282088 141.97831756 190.43890346 138.13132277 190.44494683 134.28429645 C190.45900119 125.20927536 190.45742323 116.13434838 190.44604492 107.05932617 C190.43456287 97.69457236 190.44863875 88.3301049 190.4754414 78.96538883 C190.49758711 70.92705948 190.50423832 62.88882008 190.49836498 54.85046238 C190.49499148 50.04866648 190.4974365 45.24705416 190.51461601 40.44528389 C190.53006508 35.92998027 190.52615239 31.41510132 190.50731087 26.89981461 C190.5036193 25.24259079 190.50674999 23.58533564 190.51719666 21.92814064 C190.53037024 19.66563731 190.51889322 17.40454744 190.50120544 15.1421051 C190.50099616 13.87614785 190.50078688 12.6101906 190.50057125 11.30587101 C189.90431999 7.36811042 188.81994166 5.76903009 186 3 C182.52799124 0.51789148 179.17243943 0.74122402 174.99160767 0.72584534 C174.2859688 0.72060866 173.58032994 0.71537198 172.85330808 0.70997661 C170.48889934 0.69497518 168.12470697 0.69427144 165.76025391 0.69360352 C164.06498347 0.68598216 162.36971648 0.6775547 160.67445374 0.66838074 C156.06905605 0.64642748 151.46372476 0.63763582 146.85828066 0.63255429 C143.98105741 0.62891194 141.10385159 0.62267254 138.22663498 0.6155529 C128.18916814 0.5910563 118.15175301 0.57800589 108.11425781 0.57446289 C98.75744177 0.57082663 89.40095355 0.54092537 80.04423773 0.49905831 C72.01099733 0.46437308 63.97786567 0.44891476 55.94455087 0.44821686 C51.14656813 0.44742349 46.34891933 0.43865735 41.55101395 0.41021919 C37.03812657 0.38406851 32.52585076 0.38181639 28.01292229 0.39787483 C26.35771668 0.39969168 24.70247615 0.39297726 23.04734612 0.37705612 C20.78495983 0.3566223 18.52471882 0.3671282 16.26235962 0.38526917 C14.36480643 0.38225217 14.36480643 0.38225217 12.42891884 0.37917423 C7.88551411 1.20178418 6.25294349 2.77451958 3 6 Z " fill="#DCE0E4" transform="translate(0,0)"/>
<path d="M0 0 C4.3400651 0.8904776 6.27816628 2.41128088 9 6 C9.67782998 9.06361312 9.61710963 12.00044156 9.5 15.125 C9.4808252 15.97449219 9.46165039 16.82398437 9.44189453 17.69921875 C8.83345568 34.932838 1.18648308 46.81351692 -10.78125 58.78125 C-22.30787805 69.43794386 -37.29916078 71.80556948 -52.4375 71.34765625 C-63.21936856 70.72818728 -75.43653115 65.8106517 -83.1875 58.125 C-84.0846875 57.073125 -84.0846875 57.073125 -85 56 C-83.63016497 52.83884224 -83.0109362 52.0072908 -80 50 C-79.12601563 50.67095703 -79.12601563 50.67095703 -78.234375 51.35546875 C-65.93831945 60.42284304 -54.21885945 64.07688079 -39 63 C-27.29033461 60.97779408 -16.60175396 54.78988518 -9 45.625 C-3.25007549 37.47212196 0.1489003 29.03555909 0.09765625 19.04296875 C0.09443359 17.93115234 0.09121094 16.81933594 0.08789062 15.67382812 C0.07951172 14.52333984 0.07113281 13.37285156 0.0625 12.1875 C0.05798828 11.01767578 0.05347656 9.84785156 0.04882812 8.64257812 C0.0370693 5.76166642 0.02063426 2.88085956 0 0 Z " fill="#7792AA" transform="translate(142,79)"/>
<path d="M0 0 C0.84240234 -0.00773437 1.68480469 -0.01546875 2.55273438 -0.0234375 C11.73651235 0.00484203 19.02161268 1.86406146 27.0625 6.25 C24.0625 8.25 24.0625 8.25 22.0625 8.25 C22.5575 10.23 22.5575 10.23 23.0625 12.25 C22.31484375 12.04503906 21.5671875 11.84007812 20.796875 11.62890625 C19.31960937 11.22478516 19.31960937 11.22478516 17.8125 10.8125 C16.35070312 10.41224609 16.35070312 10.41224609 14.859375 10.00390625 C13.93640625 9.75511719 13.0134375 9.50632812 12.0625 9.25 C11.42699219 9.05921875 10.79148437 8.8684375 10.13671875 8.671875 C-2.40654844 6.12070201 -14.8809462 9.00876116 -25.75 15.4375 C-36.09045886 22.53153573 -43.13090276 32.55387725 -46.3125 44.75 C-47.89326769 53.68617651 -47.58370793 63.54364923 -44.9375 72.25 C-44.2775 72.58 -43.6175 72.91 -42.9375 73.25 C-43.72125 73.848125 -44.505 74.44625 -45.3125 75.0625 C-48.08324323 77.16085249 -48.08324323 77.16085249 -49.9375 80.25 C-50.58793719 78.52255984 -51.23264844 76.7929631 -51.875 75.0625 C-52.23464844 74.09957031 -52.59429687 73.13664062 -52.96484375 72.14453125 C-57.13033266 59.74843774 -56.41610532 44.04893707 -50.9375 32.25 C-43.45502271 17.79403021 -33.04186048 8.34918807 -17.9375 2.25 C-11.84369145 0.36873193 -6.35578203 -0.05808788 0 0 Z " fill="#7994AD" transform="translate(94.9375,39.75)"/>
<path d="M0 0 C0.66 0.33 1.32 0.66 2 1 C1.67 1.66 1.34 2.32 1 3 C0.89459941 5.26899139 0.85602849 7.54115985 0.84609985 9.81257629 C0.83952647 10.87565499 0.83952647 10.87565499 0.8328203 11.96021003 C0.81941222 14.34692976 0.81324897 16.73361255 0.80712891 19.12036133 C0.79922957 20.82680937 0.79096073 22.53325573 0.78234863 24.23970032 C0.75611084 29.85379436 0.74082009 35.46789593 0.7265625 41.08203125 C0.7212037 43.01293124 0.7158262 44.94383118 0.71043015 46.87473106 C0.6887996 54.9049976 0.67006175 62.93526211 0.65880775 70.96555042 C0.64256117 82.48343988 0.60936821 94.00099237 0.55240691 105.51875478 C0.5137416 113.61222462 0.49417916 121.7056042 0.48888719 129.799164 C0.48522928 134.63572556 0.47316147 139.47192787 0.44078445 144.30838966 C0.41076341 148.8581588 0.40437053 153.4073502 0.41616821 157.95719719 C0.41638944 159.62734248 0.40804343 161.29751412 0.39051437 162.96756744 C0.36788201 165.24790112 0.37608736 167.52612921 0.39199829 169.80647278 C0.38868814 171.08240201 0.385378 172.35833124 0.38196754 173.672925 C1.1860018 178.0013098 2.441469 179.44682918 6 182 C9.39065439 182.73713905 9.39065439 182.73713905 13.18006897 182.60800171 C13.89205694 182.6129794 14.60404491 182.61795709 15.33760828 182.62308562 C17.71796286 182.63364405 20.09658029 182.60852794 22.47680664 182.58349609 C24.18531961 182.58372284 25.89383348 182.5861377 27.6023407 182.59057617 C32.2387785 182.59628275 36.87458756 182.57098943 41.5109055 182.53990126 C46.3616944 182.51235545 51.21248431 182.51236112 56.06333923 182.50918579 C64.20843381 182.49998242 72.35329351 182.47245097 80.49829102 182.43212891 C91.9877071 182.37530247 103.47700492 182.35297833 114.9665395 182.33684421 C122.92240111 182.32438966 130.87824477 182.30371234 138.83408427 182.2814641 C140.76386224 182.27610174 142.69364084 182.27096524 144.62342 182.26605177 C150.12404767 182.2517479 155.62460801 182.23231651 161.12518501 182.20457458 C162.79249891 182.19685386 164.45982143 182.1907917 166.12714767 182.18649673 C168.40045406 182.18027717 170.67364493 182.16792274 172.94691467 182.15390015 C174.21986924 182.14832785 175.49282381 182.14275555 176.80435276 182.13701439 C179.40938154 182.02532295 181.52980798 181.77690462 184 181 C184 181.66 184 182.32 184 183 C180.40340921 185.3977272 177.8426253 185.27489114 173.69184875 185.24050903 C172.56706872 185.24307231 172.56706872 185.24307231 171.41956586 185.24568737 C168.89981279 185.24898906 166.38032435 185.23796748 163.8605957 185.22705078 C162.05722052 185.22648681 160.25384488 185.22680294 158.45046997 185.22793579 C153.54787139 185.22851087 148.64537018 185.21673148 143.74279428 185.20278788 C138.62184403 185.19030634 133.50089169 185.18911205 128.37992859 185.18673706 C118.67957347 185.1805147 108.97926329 185.16409367 99.27892798 185.14403808 C88.23675315 185.12170258 77.19457619 185.11069157 66.1523844 185.10064721 C43.43489799 185.0797281 20.71745151 185.04453745 -2 185 C-2.04666439 161.1743142 -2.08196151 137.34863523 -2.10362434 113.52291298 C-2.1139489 102.46089783 -2.12803168 91.39891102 -2.15087891 80.33691406 C-2.17077677 70.69834512 -2.18370785 61.0597967 -2.18817699 51.42120779 C-2.1907905 46.31488402 -2.1969577 41.20861899 -2.21146011 36.102314 C-2.22498716 31.30074719 -2.22923258 26.49926357 -2.22621536 21.69767952 C-2.22676772 19.9311522 -2.2307741 18.16462224 -2.23841095 16.39811134 C-2.24829603 13.99460266 -2.24599268 11.59141208 -2.24050903 9.18789673 C-2.24633472 8.48167887 -2.2521604 7.77546102 -2.25816262 7.04784262 C-2.22824242 2.22824242 -2.22824242 2.22824242 0 0 Z " fill="#BDC7D1" transform="translate(2,5)"/>
<path d="M0 0 C0.33 0 0.66 0 1 0 C1 1.98 1 3.96 1 6 C-62.36 6 -125.72 6 -191 6 C-191 5.34 -191 4.68 -191 4 C-190.03386371 3.99761165 -189.06772741 3.99522329 -188.07231426 3.99276257 C-164.58779332 3.93402507 -141.10337544 3.85817807 -117.61896801 3.76428509 C-106.26218276 3.71927759 -94.90542921 3.67987443 -83.54858398 3.65356445 C-73.6524833 3.63062442 -63.75648255 3.59727137 -53.86046106 3.55129844 C-48.61830005 3.52731219 -43.37623834 3.50861889 -38.13402367 3.50238609 C-33.20349786 3.49635959 -28.2732263 3.4764485 -23.34279442 3.44572449 C-21.52994549 3.43690504 -19.7170634 3.43322971 -17.90419388 3.43499184 C-15.43515557 3.43663453 -12.96690166 3.42003233 -10.49797058 3.39872742 C-9.41383095 3.40599878 -9.41383095 3.40599878 -8.3077895 3.41341704 C-4.3980373 3.37586429 -4.3980373 3.37586429 -1.09387684 1.47507954 C-0.73289748 0.98830329 -0.37191813 0.50152704 0 0 Z " fill="#F1F2F3" transform="translate(191,186)"/>
<path d="M0 0 C63.36 0 126.72 0 192 0 C192 3.3 192 6.6 192 10 C191.34 10 190.68 10 190 10 C189.38125 9.05125 188.7625 8.1025 188.125 7.125 C185.97198745 3.95880508 185.44115213 3.22723956 182 2 C178.72364183 1.68981822 178.72364183 1.68981822 175.00506592 1.72584534 C174.30083819 1.72060866 173.59661046 1.71537198 172.87104249 1.70997661 C170.51130159 1.69497509 168.1517775 1.69427143 165.79199219 1.69360352 C164.09996678 1.68598203 162.40794483 1.67755455 160.71592712 1.66838074 C156.11865934 1.64642547 151.52145808 1.63763524 146.92414379 1.63255429 C144.05092517 1.62891139 141.177724 1.62267161 138.30451202 1.6155529 C128.27770726 1.59105308 118.25095426 1.57800573 108.22412109 1.57446289 C98.88324945 1.57082907 89.54270668 1.54094609 80.20193553 1.49905831 C72.17885487 1.46434318 64.15588311 1.44891422 56.13272786 1.44821686 C51.34250575 1.44742434 46.55261847 1.43869772 41.76247406 1.41021919 C37.25450511 1.38401818 32.74714807 1.38184457 28.23913765 1.39787483 C26.5879972 1.39968782 24.93682141 1.3930121 23.28575706 1.37705612 C14.59697415 1.29823185 8.04223654 1.25226396 1 7 C0.67 7 0.34 7 0 7 C0 4.69 0 2.38 0 0 Z " fill="#E0E6EB" transform="translate(0,0)"/>
<path d="M0 0 C0.33 0 0.66 0 1 0 C1.04666562 22.65223126 1.08196211 45.30445463 1.10362434 67.95672417 C1.11394864 78.47393269 1.12803092 88.99111139 1.15087891 99.50830078 C1.17077757 108.67223032 1.18370804 117.83613827 1.18817699 127.00008881 C1.19079036 131.85490282 1.19695671 136.70965505 1.21146011 141.56444931 C1.22498843 146.12963382 1.22923232 150.69473082 1.22621536 155.25993347 C1.22676766 156.93938293 1.23077331 158.61883518 1.23841095 160.29826736 C1.24829803 162.58354674 1.24599198 164.86849166 1.24050903 167.15377808 C1.24327441 169.07571645 1.24327441 169.07571645 1.24609566 171.03648186 C1 174 1 174 -1 176 C-1.99 175.67 -2.98 175.34 -4 175 C-3.51322375 174.48381481 -3.02644751 173.96762962 -2.52492046 173.43580246 C-0.47777624 170.1658359 -0.61537865 167.87529462 -0.60127258 164.02716064 C-0.59462576 163.32545549 -0.58797893 162.62375034 -0.58113068 161.90078139 C-0.56248076 159.54991769 -0.56510722 157.19956205 -0.56762695 154.84863281 C-0.55861098 153.16332784 -0.54828417 151.47802944 -0.53674316 149.79273987 C-0.50912757 145.21665915 -0.49988247 140.64070271 -0.49388909 136.06454945 C-0.48451728 131.2825457 -0.45831488 126.50063521 -0.43388367 121.71868896 C-0.39018211 112.6629778 -0.36165761 103.60728468 -0.33856028 94.55150008 C-0.3115282 84.24199732 -0.26761547 73.93258821 -0.22227156 63.62315226 C-0.12937292 42.41548518 -0.05771608 21.20779008 0 0 Z " fill="#9FB1C0" transform="translate(190,10)"/>
<path d="M0 0 C0.33 0.66 0.66 1.32 1 2 C-2.6983234 4.46554893 -4.47772158 4.2346852 -8.89054871 4.20254517 C-9.59548299 4.20017046 -10.30041727 4.19779576 -11.02671319 4.1953491 C-13.39451522 4.18491219 -15.76194649 4.16003336 -18.12963867 4.13525391 C-19.8246358 4.12483036 -21.51963859 4.11529465 -23.21464539 4.10658264 C-27.8218547 4.08037654 -32.42888611 4.04171089 -37.03598571 4.00085878 C-41.84859432 3.96028654 -46.66127143 3.93110261 -51.47395325 3.90072632 C-60.58999368 3.84144992 -69.70592563 3.77188671 -78.82186347 3.69865549 C-89.19894984 3.61579186 -99.57610494 3.5443536 -109.95328176 3.47388959 C-131.3022891 3.32866695 -152.6511689 3.16904891 -174 3 C-174 2.67 -174 2.34 -174 2 C-172.68221573 1.99365209 -172.68221573 1.99365209 -171.33780956 1.98717594 C-149.98135651 1.88396221 -128.62493698 1.77533844 -107.26854229 1.66066074 C-96.94083991 1.60533501 -86.61313407 1.55185406 -76.28540039 1.50268555 C-67.28587901 1.45983577 -58.28638301 1.41355574 -49.28690082 1.36312145 C-44.51983964 1.33652693 -39.75278348 1.31167398 -34.98569298 1.29092598 C-30.50175483 1.27135622 -26.01786494 1.24721138 -21.53396988 1.21950912 C-19.88559278 1.2101405 -18.23720509 1.20246453 -16.58881187 1.19658089 C-14.34334972 1.18831652 -12.09800459 1.17403892 -9.85258484 1.15821838 C-8.59433742 1.15176583 -7.33608999 1.14531328 -6.03971386 1.1386652 C-2.95462204 1.13635586 -2.95462204 1.13635586 0 0 Z " fill="#A3B3C7" transform="translate(185,186)"/>
<path d="M0 0 C0.33 0.66 0.66 1.32 1 2 C-4.05352742 7.96348734 -9.41711741 13.53105379 -15 19 C-15.66 18.67 -16.32 18.34 -17 18 C-16.44570313 17.45730469 -15.89140625 16.91460937 -15.3203125 16.35546875 C-14.23363281 15.28232422 -14.23363281 15.28232422 -13.125 14.1875 C-12.40570313 13.47980469 -11.68640625 12.77210937 -10.9453125 12.04296875 C-8.84641063 9.95600806 -8.84641063 9.95600806 -7 7 C-6.34 7 -5.68 7 -5 7 C-4.731875 6.401875 -4.46375 5.80375 -4.1875 5.1875 C-3.01506533 3.02775192 -1.80630718 1.64209744 0 0 Z " fill="#DCE4E8" transform="translate(69,93)"/>
<path d="M0 0 C0.495 0.99 0.495 0.99 1 2 C-2.76971235 4.51314157 -4.58627894 4.15974372 -9.07421875 3.9765625 C-9.7580513 3.95153656 -10.44188385 3.92651062 -11.1464386 3.90072632 C-13.32730629 3.81865275 -15.50725097 3.72201736 -17.6875 3.625 C-19.16728019 3.56674731 -20.64709809 3.5094443 -22.12695312 3.453125 C-25.75180422 3.3130945 -29.37596924 3.15999996 -33 3 C-33 2.67 -33 2.34 -33 2 C-32.10692139 1.97494385 -31.21384277 1.9498877 -30.29370117 1.92407227 C-26.97814546 1.82889814 -23.66276271 1.72966717 -20.34741211 1.62768555 C-18.91288997 1.58439207 -17.47831816 1.54271301 -16.04370117 1.50268555 C-13.9808048 1.44484733 -11.91815717 1.38119247 -9.85546875 1.31640625 C-8.61434326 1.27974854 -7.37321777 1.24309082 -6.09448242 1.20532227 C-2.96446653 1.12855879 -2.96446653 1.12855879 0 0 Z " fill="#AEBBCE" transform="translate(185,186)"/>
<path d="M0 0 C0.33 0 0.66 0 1 0 C1.05785647 3.95827235 1.09354717 7.9164367 1.125 11.875 C1.14175781 13.00292969 1.15851563 14.13085938 1.17578125 15.29296875 C1.18222656 16.36933594 1.18867188 17.44570312 1.1953125 18.5546875 C1.20578613 19.54968262 1.21625977 20.54467773 1.22705078 21.56982422 C1 24 1 24 -1 26 C-1.99 25.67 -2.98 25.34 -4 25 C-3.2733313 24.1642041 -3.2733313 24.1642041 -2.53198242 23.31152344 C-0.76360735 20.64332023 -0.58486983 19.18373054 -0.48828125 16.015625 C-0.43510742 14.61376953 -0.43510742 14.61376953 -0.38085938 13.18359375 C-0.35830078 12.21550781 -0.33574219 11.24742187 -0.3125 10.25 C-0.27833984 9.26644531 -0.24417969 8.28289062 -0.20898438 7.26953125 C-0.12664727 4.84646801 -0.05745162 2.42376002 0 0 Z " fill="#ADBBC9" transform="translate(190,160)"/>
<path d="M0 0 C1.65 0 3.3 0 5 0 C5 3.3 5 6.6 5 10 C4.34 10 3.68 10 3 10 C2.01 6.7 1.02 3.4 0 0 Z " fill="#E9ECED" transform="translate(187,0)"/>
<path d="M0 0 C0.99 0.33 1.98 0.66 3 1 C-0.3 4.3 -3.6 7.6 -7 11 C-7.33 10.01 -7.66 9.02 -8 8 C-5.36 5.36 -2.72 2.72 0 0 Z " fill="#2A4D6B" transform="translate(80,99)"/>
<path d="M0 0 C0.33 0 0.66 0 1 0 C1 1.65 1 3.3 1 5 C-1.97 5 -4.94 5 -8 5 C-8 4.67 -8 4.34 -8 4 C-6.576875 3.566875 -6.576875 3.566875 -5.125 3.125 C-1.94788422 2.23174891 -1.94788422 2.23174891 0 0 Z " fill="#EEEFEE" transform="translate(191,186)"/>
<path d="M0 0 C0.33 0.99 0.66 1.98 1 3 C-1.97 5.475 -1.97 5.475 -5 8 C-5 5 -5 5 -2.5 2.3125 C-1.675 1.549375 -0.85 0.78625 0 0 Z " fill="#385571" transform="translate(121,90)"/>
<path d="M0 0 C2 3 2 3 1.625 5.1875 C1.41875 5.785625 1.2125 6.38375 1 7 C-1 5 -3 3 -5 1 C-2 0 -2 0 0 0 Z " fill="#D5DFE4" transform="translate(187,0)"/>
<path d="M0 0 C0.33 0.99 0.66 1.98 1 3 C-0.65 4.32 -2.3 5.64 -4 7 C-4.66 6.67 -5.32 6.34 -6 6 C-4.02 4.02 -2.04 2.04 0 0 Z " fill="#2C4D6A" transform="translate(139,71)"/>
</svg>
